<svg xmlns="http://www.w3.org/2000/svg" fill="none" viewBox="0 0 24 24"><path fill="currentColor" fill-rule="evenodd" d="m13.08 14.784 2.204-2.204a2 2 0 0 0 .375-2.309l-.125-.25a2 2 0 0 1 .374-2.308l2.733-2.733a.5.5 0 0 1 .8.13l1.105 2.208a4.387 4.387 0 0 1-.822 5.065l-5.999 5.998a5.427 5.427 0 0 1-5.553 1.311l-2.415-.804a.5.5 0 0 1-.195-.828l2.65-2.652a2 2 0 0 1 2.31-.374l.25.125a2 2 0 0 0 2.308-.375Z" clip-rule="evenodd"/><path fill="currentColor" fill-rule="evenodd" d="m14.313 4.014.185-1.992c-3.237-.3-6.457.83-8.801 3.175a10.977 10.977 0 0 0-3.176 8.788l1.992-.183A8.978 8.978 0 0 1 7.11 6.611a8.978 8.978 0 0 1 7.202-2.597Zm-.356 3.984.191-1.99a6.986 6.986 0 0 0-5.623 2.017 6.986 6.986 0 0 0-2.02 5.603l1.992-.185a4.987 4.987 0 0 1 1.442-4.004 4.987 4.987 0 0 1 4.018-1.441Z" clip-rule="evenodd" opacity=".3"/></svg>
