<svg xmlns="http://www.w3.org/2000/svg" fill="none" viewBox="0 0 24 24"><path fill="currentColor" fill-rule="evenodd" d="M18 2h2a3 3 0 0 1 3 3v14a3 3 0 0 1-3 3h-2V2Z" clip-rule="evenodd" opacity=".3"/><path fill="currentColor" fill-rule="evenodd" d="M4 3a1 1 0 0 1 1-1h12a3 3 0 0 1 3 3v14a3 3 0 0 1-3 3H5a1 1 0 0 1-1-1V3Zm8 8a2 2 0 1 1 0-4 2 2 0 0 1 0 4Zm-.01 1C9.369 12 7.217 13.517 7 16.5c-.011.162.265.5.404.5h9.177c.418 0 .424-.378.418-.5-.163-3.067-2.348-4.5-5.008-4.5Z" clip-rule="evenodd"/></svg>
