<svg xmlns="http://www.w3.org/2000/svg" fill="none" viewBox="0 0 24 24"><path fill="currentColor" fill-rule="evenodd" d="M8 21h8l-4-5-4 5Z" clip-rule="evenodd" opacity=".3"/><path fill="currentColor" fill-rule="evenodd" d="m21.678 10.904 1.613-1.184A13.98 13.98 0 0 0 12 4 13.98 13.98 0 0 0 .606 9.864l1.627 1.163A11.981 11.981 0 0 1 12 6c3.87 0 7.43 1.843 9.678 4.904Zm-1.21 1.075-1.539 1.277A8.978 8.978 0 0 0 12 10a8.977 8.977 0 0 0-6.922 3.248l-1.538-1.28A10.977 10.977 0 0 1 12 8c3.315 0 6.392 1.477 8.468 3.979Zm-3.065 2.57-1.543 1.273A4.987 4.987 0 0 0 12 14a4.987 4.987 0 0 0-3.85 1.81l-1.54-1.276A6.986 6.986 0 0 1 12 12c2.117 0 4.082.947 5.403 2.55Z" clip-rule="evenodd"/></svg>
