<svg xmlns="http://www.w3.org/2000/svg" fill="none" viewBox="0 0 24 24"><path fill="currentColor" fill-rule="evenodd" d="m15.137 20.362.963 1.668a1 1 0 1 0 1.732-1l-.969-1.678-.01.008a7.992 7.992 0 0 1-1.716 1.002Zm-7.994-1.004a7.992 7.992 0 0 0 1.728 1.007l-.979 1.696a1 1 0 0 1-1.732-1l.983-1.703Z" clip-rule="evenodd"/><path fill="currentColor" fill-rule="evenodd" d="M5.299 2.882A1.5 1.5 0 1 1 7.42 5.003L5.299 7.125a1.5 1.5 0 0 1-2.122-2.122L5.3 2.883Zm11.649.372a1.5 1.5 0 0 1 2.12 0l1.75 1.75a1.5 1.5 0 1 1-2.121 2.12l-1.75-1.749a1.5 1.5 0 0 1 0-2.12ZM12 21a8 8 0 1 1 0-16 8 8 0 0 1 0 16Z" clip-rule="evenodd" opacity=".3"/><path fill="currentColor" fill-rule="evenodd" d="M11.464 7.962a.5.5 0 0 1 .499-.462h.085a.5.5 0 0 1 .497.45L13 12.5l3.248 1.856a.5.5 0 0 1 .252.434v.055a.5.5 0 0 1-.632.483l-4.47-1.22a.5.5 0 0 1-.366-.52l.432-5.626Z" clip-rule="evenodd"/></svg>
