<svg xmlns="http://www.w3.org/2000/svg" fill="none" viewBox="0 0 24 24"><path fill="currentColor" fill-rule="evenodd" d="M9.618 5H3a1 1 0 0 0 0 2h5.735l.883-2ZM7.853 9H3a1 1 0 0 0 0 2h3.97l.883-2Zm9.176 2-.882-2H21a1 1 0 1 1 0 2h-3.97ZM6.09 13H3a1 1 0 1 0 0 2h2.206l.882-2Zm12.705 2-.882-2H21a1 1 0 1 1 0 2h-2.206Zm-14.47 2H3a1 1 0 1 0 0 2h.441l.883-2Zm16.235 2-.883-2H21a1 1 0 1 1 0 2h-.441ZM15.265 7l-.883-2H21a1 1 0 1 1 0 2h-5.735Z" clip-rule="evenodd" opacity=".3"/><path fill="currentColor" fill-rule="evenodd" d="M11.044 5.256h1.962L18.5 19H16l-1.284-3.916H9.19L7.5 19H5l6.044-13.744Zm2.88 7.884-1.962-5.184-1.998 5.184h3.96Z" clip-rule="evenodd"/></svg>
