<svg xmlns="http://www.w3.org/2000/svg" fill="none" viewBox="0 0 24 24"><path fill="currentColor" fill-rule="evenodd" d="M7.716 19.71a1 1 0 0 0 .704.29H21a2 2 0 0 0 2-2V6a2 2 0 0 0-2-2H8.42a1 1 0 0 0-.704.29l-7.063 7a1 1 0 0 0 0 1.42l7.063 7Z" clip-rule="evenodd" opacity=".3"/><path fill="currentColor" fill-rule="evenodd" d="M11.172 13.414a1 1 0 1 0 1.414 1.414L14 13.414l1.414 1.414a1 1 0 0 0 1.414-1.414L15.414 12l1.414-1.414a1 1 0 0 0-1.414-1.414L14 10.586l-1.414-1.414a1 1 0 1 0-1.414 1.414L12.586 12l-1.414 1.414Z" clip-rule="evenodd"/></svg>
