<svg xmlns="http://www.w3.org/2000/svg" fill="none" viewBox="0 0 24 24"><path fill="currentColor" fill-rule="evenodd" d="M5 15v5H3a1 1 0 0 1-1-1v-4h3Zm8 0v5h2v-5h-2Zm2-6h-2V5h2v4Zm1 6v5h2v-5h-2Zm2-6h-2V5h2v4Zm2 6v5h1a1 1 0 0 0 1-1v-4h-2Zm2-6h-2V5h1a1 1 0 0 1 1 1v3ZM5 9H2V6a1 1 0 0 1 1-1h2v4Z" clip-rule="evenodd"/><path fill="currentColor" fill-rule="evenodd" d="M9 9V5H7v4h2Zm0 6H7v5h2v-5Z" clip-rule="evenodd" opacity=".3"/><rect width="24" height="2" y="11" fill="currentColor" opacity=".3" rx="1"/></svg>
