<svg xmlns="http://www.w3.org/2000/svg" fill="none" viewBox="0 0 24 24"><path fill="currentColor" d="M6 10a1 1 0 1 1-2 0V6a3 3 0 0 1 6 0 1 1 0 0 1-2 0 1 1 0 0 0-2 0v4ZM6 20H4c0-2.761 2.239-4 5-4h6c2.761 0 5 1.239 5 4h-2c0-1.657-1.343-2-3-2H9c-1.657 0-3 .343-3 2Z" opacity=".3"/><path fill="currentColor" fill-rule="evenodd" d="M23 9H2l.506 4.552A5 5 0 0 0 7.476 18h10.049a5 5 0 0 0 4.97-4.448L23 9Zm-3 1.75a.75.75 0 0 0-.75.75c0 1.43-.555 2.542-1.7 3.4a.75.75 0 1 0 .9 1.2c1.522-1.142 2.3-2.697 2.3-4.6a.75.75 0 0 0-.75-.75Z" clip-rule="evenodd"/></svg>
