<svg xmlns="http://www.w3.org/2000/svg" fill="none" viewBox="0 0 24 24"><path fill="currentColor" d="M4 22H2c0-2.761 2.239-4 5-4h10c2.761 0 5 1.239 5 4h-2c0-1.657-1.343-2-3-2H7c-1.657 0-3 .343-3 2Z" opacity=".3"/><rect width="22" height="6" x="1" y="14" fill="currentColor" rx="1"/><path fill="currentColor" fill-rule="evenodd" d="M3 8a2 2 0 0 1 2-2h14a2 2 0 0 1 2 2v4a1 1 0 0 1-1 1h-1v-1a1 1 0 0 0-1-1h-4a1 1 0 0 0-1 1v1h-2v-1a1 1 0 0 0-1-1H6a1 1 0 0 0-1 1v1H4a1 1 0 0 1-1-1V8Z" clip-rule="evenodd" opacity=".3"/></svg>
