<svg xmlns="http://www.w3.org/2000/svg" fill="none" viewBox="0 0 24 24"><path fill="currentColor" fill-rule="evenodd" d="M5.5 4A1.5 1.5 0 0 0 4 5.5v4A1.5 1.5 0 0 0 5.5 11h13A1.5 1.5 0 0 0 20 9.5v-4A1.5 1.5 0 0 0 18.5 4h-13ZM11 6a1 1 0 1 0 0 2h2a1 1 0 1 0 0-2h-2Z" clip-rule="evenodd" opacity=".3"/><path fill="currentColor" fill-rule="evenodd" d="M5.5 13A1.5 1.5 0 0 0 4 14.5v4A1.5 1.5 0 0 0 5.5 20h13a1.5 1.5 0 0 0 1.5-1.5v-4a1.5 1.5 0 0 0-1.5-1.5h-13Zm5.5 2a1 1 0 1 0 0 2h2a1 1 0 1 0 0-2h-2Z" clip-rule="evenodd"/></svg>
