<svg xmlns="http://www.w3.org/2000/svg" fill="none" viewBox="0 0 24 24"><path fill="currentColor" fill-rule="evenodd" d="M13 18.225c0 .363.377.615.718.489 1.241-.458 4.023-1.34 7.82-1.676a.5.5 0 0 0 .462-.496V5.5a.476.476 0 0 0-.497-.483c-1.255.061-4.7.364-8.204 1.854a.491.491 0 0 0-.299.454v10.901Z" clip-rule="evenodd"/><path fill="currentColor" fill-rule="evenodd" d="M11 18.225a.534.534 0 0 1-.718.489c-1.241-.458-4.023-1.34-7.82-1.676A.5.5 0 0 1 2 16.542V5.5c0-.276.221-.497.497-.483 1.255.061 4.7.364 8.204 1.854a.491.491 0 0 1 .299.454v10.901Z" clip-rule="evenodd" opacity=".3"/></svg>
