<svg xmlns="http://www.w3.org/2000/svg" fill="none" viewBox="0 0 24 24"><path fill="currentColor" fill-rule="evenodd" d="M19 2H7C5.254 2 4 3.306 4 5v14c0 1.694 1.254 3 3 3h12c.642 0 1-.373 1-1v-1H8a1 1 0 1 1 0-2h12V3c0-.627-.358-1-1-1Z" clip-rule="evenodd"/><mask width="16" height="20" x="4" y="2" maskUnits="userSpaceOnUse" style="mask-type:alpha"><path fill="#fff" fill-rule="evenodd" d="M19 2H7C5.254 2 4 3.306 4 5v14c0 1.694 1.254 3 3 3h12c.642 0 1-.373 1-1v-1H8a1 1 0 1 1 0-2h12V3c0-.627-.358-1-1-1Z" clip-rule="evenodd"/></mask></svg>
