<svg xmlns="http://www.w3.org/2000/svg" fill="none" viewBox="0 0 24 24"><path fill="currentColor" fill-rule="evenodd" d="M5 4a2 2 0 0 1 2-2h10a2 2 0 0 1 2 2v17h-5.5v-3a1 1 0 0 0-1-1h-1a1 1 0 0 0-1 1v3H5V4Zm3 1a1 1 0 0 1 1-1h1a1 1 0 0 1 1 1v1a1 1 0 0 1-1 1H9a1 1 0 0 1-1-1V5Zm6-1a1 1 0 0 0-1 1v1a1 1 0 0 0 1 1h1a1 1 0 0 0 1-1V5a1 1 0 0 0-1-1h-1ZM8 9a1 1 0 0 1 1-1h1a1 1 0 0 1 1 1v1a1 1 0 0 1-1 1H9a1 1 0 0 1-1-1V9Zm1 3a1 1 0 0 0-1 1v1a1 1 0 0 0 1 1h1a1 1 0 0 0 1-1v-1a1 1 0 0 0-1-1H9Zm4 1a1 1 0 0 1 1-1h1a1 1 0 0 1 1 1v1a1 1 0 0 1-1 1h-1a1 1 0 0 1-1-1v-1Z" clip-rule="evenodd"/><rect width="3" height="3" x="13" y="8" fill="#fff" rx="1"/><path fill="currentColor" d="M3 22.988C3 21.89 3.89 21 4.988 21h14.024C20.11 21 21 21.89 21 22.988a.012.012 0 0 1-.012.012H3.012A.012.012 0 0 1 3 22.988Z" opacity=".3"/></svg>
