<svg xmlns="http://www.w3.org/2000/svg" fill="none" viewBox="0 0 24 24"><path fill="currentColor" fill-rule="evenodd" d="M3.939 4.721c-.522-.956-.17-2.133.855-2.502C6.35 1.658 8.846 1 12 1c3.154 0 5.65.658 7.206 1.219 1.024.37 1.377 1.546.855 2.502L15 14H9L3.939 4.721Z" clip-rule="evenodd" opacity=".3"/><path fill="currentColor" d="M10 20h4a2 2 0 1 1-4 0Z" opacity=".3"/><path fill="currentColor" fill-rule="evenodd" d="M10.5 9a.5.5 0 0 0 0 1h.5v8a1 1 0 1 0 2 0v-8h.5a.5.5 0 0 0 0-1h-3Z" clip-rule="evenodd" opacity=".3"/><path fill="currentColor" fill-rule="evenodd" d="M8 15a1 1 0 0 1 1-1h6a1 1 0 1 1 0 2 1 1 0 1 1 0 2 1 1 0 1 1 0 2H9a1 1 0 1 1 0-2 1 1 0 1 1 0-2 1 1 0 0 1-1-1Z" clip-rule="evenodd"/></svg>
