<svg xmlns="http://www.w3.org/2000/svg" fill="none" viewBox="0 0 24 24"><path fill="currentColor" fill-rule="evenodd" d="M9 6.5A1.5 1.5 0 0 1 10.5 5h9a1.5 1.5 0 0 1 0 3h-9A1.5 1.5 0 0 1 9 6.5Zm0 5a1.5 1.5 0 0 1 1.5-1.5h9a1.5 1.5 0 0 1 0 3h-9A1.5 1.5 0 0 1 9 11.5Zm1.5 3.5a1.5 1.5 0 0 0 0 3h9a1.5 1.5 0 0 0 0-3h-9Z" clip-rule="evenodd"/><path fill="currentColor" fill-rule="evenodd" d="M7 6.5a1.5 1.5 0 1 1-3 0 1.5 1.5 0 0 1 3 0Zm0 5a1.5 1.5 0 1 1-3 0 1.5 1.5 0 0 1 3 0ZM5.5 18a1.5 1.5 0 1 0 0-3 1.5 1.5 0 0 0 0 3Z" clip-rule="evenodd" opacity=".3"/></svg>
