<svg xmlns="http://www.w3.org/2000/svg" fill="none" viewBox="0 0 24 24"><path fill="currentColor" d="M7 4H17V8H7z" opacity=".3"/><path fill="currentColor" fill-rule="evenodd" d="M7 2a2 2 0 0 0-2 2v16a2 2 0 0 0 2 2h10a2 2 0 0 0 2-2V4a2 2 0 0 0-2-2H7Zm1 10a1 1 0 1 0 0-2 1 1 0 0 0 0 2Zm1 3a1 1 0 1 1-2 0 1 1 0 0 1 2 0Zm3-3a1 1 0 1 0 0-2 1 1 0 0 0 0 2Zm1 3a1 1 0 1 1-2 0 1 1 0 0 1 2 0Zm3-3a1 1 0 1 0 0-2 1 1 0 0 0 0 2Zm1 3a1 1 0 1 1-2 0 1 1 0 0 1 2 0Zm-1 5a1 1 0 1 0 0-2 1 1 0 0 0 0 2Zm-9-1a1 1 0 0 1 1-1h4a1 1 0 1 1 0 2H8a1 1 0 0 1-1-1ZM17 4H7v4h10V4Z" clip-rule="evenodd"/></svg>
