<svg xmlns="http://www.w3.org/2000/svg" fill="none" viewBox="0 0 24 24"><path fill="currentColor" fill-rule="evenodd" d="M17 2h2a3 3 0 0 1 3 3v14a3 3 0 0 1-3 3h-2V2Z" clip-rule="evenodd" opacity=".3"/><path fill="currentColor" fill-rule="evenodd" d="M4 2a1 1 0 0 0-1 1v18a1 1 0 0 0 1 1h12a3 3 0 0 0 3-3V5a3 3 0 0 0-3-3H4Zm7.118 11.71a1.462 1.462 0 0 1-1.689.273 1.463 1.463 0 0 0-1.688.274l-1.516 1.517a.495.495 0 0 0 .193.82 5.94 5.94 0 0 0 6.079-1.435l1.906-1.906a5.041 5.041 0 0 0 .944-5.82.42.42 0 0 0-.673-.108l-1.67 1.67a1.462 1.462 0 0 0-.275 1.689 1.463 1.463 0 0 1-.274 1.688l-1.337 1.338Z" clip-rule="evenodd"/></svg>
