<svg xmlns="http://www.w3.org/2000/svg" fill="none" viewBox="0 0 24 24"><path fill="currentColor" fill-rule="evenodd" d="M4 4h16a2 2 0 0 1 2 2v12a2 2 0 0 1-2 2H4a2 2 0 0 1-2-2V6a2 2 0 0 1 2-2Z" clip-rule="evenodd" opacity=".3"/><path fill="currentColor" fill-rule="evenodd" d="M18.5 11h-13A1.5 1.5 0 0 0 4 12.5v.5h4.586a1 1 0 0 1 .707.293l1 1a2.414 2.414 0 0 0 3.414 0l1-1a1 1 0 0 1 .707-.293H20v-.5a1.5 1.5 0 0 0-1.5-1.5ZM5.5 6A1.5 1.5 0 0 0 4 7.5V8h16v-.5A1.5 1.5 0 0 0 18.5 6h-13Z" clip-rule="evenodd"/></svg>
