<svg xmlns="http://www.w3.org/2000/svg" fill="none" viewBox="0 0 24 24"><path fill="currentColor" fill-rule="evenodd" d="m16.993 6.41.613-2.627a1.18 1.18 0 0 1 1.15-.912h2.064a1.18 1.18 0 0 1 0 2.36h-1.128l-1.547 6.613-.698 4.185a1 1 0 0 1-1.165.82L4.913 14.78a1 1 0 0 1-.783-.709L2.306 7.685a1 1 0 0 1 .961-1.275h13.726Z" clip-rule="evenodd" opacity=".3"/><path fill="currentColor" fill-rule="evenodd" d="M6.5 21a1.5 1.5 0 1 0 0-3 1.5 1.5 0 0 0 0 3Zm9 0a1.5 1.5 0 1 0 0-3 1.5 1.5 0 0 0 0 3Z" clip-rule="evenodd"/></svg>
