<svg xmlns="http://www.w3.org/2000/svg" fill="none" viewBox="0 0 24 24"><path fill="currentColor" fill-rule="evenodd" d="M12 2a4.854 4.854 0 0 0-4.342 2.683L5.92 8.161C3.66 12.681 6.946 18 12 18s8.34-5.318 6.08-9.839l-1.738-3.478A4.854 4.854 0 0 0 12 2ZM8.45 12.4l-.9 1.2c1.456 1.092 2.944 1.65 4.45 1.65 1.506 0 2.994-.558 4.45-1.65l-.9-1.2c-1.21.908-2.39 1.35-3.55 1.35-1.16 0-2.34-.442-3.55-1.35Z" clip-rule="evenodd"/><path fill="currentColor" fill-rule="evenodd" d="M17.832 21.03a1 1 0 0 1-1.732 1l-2-3.464a1 1 0 1 1 1.732-1l2 3.464Zm-11.672.03a1 1 0 1 0 1.732 1l2-3.464a1 1 0 0 0-1.732-1l-2 3.465Z" clip-rule="evenodd" opacity=".3"/></svg>
