<svg xmlns="http://www.w3.org/2000/svg" fill="none" viewBox="0 0 24 24"><path fill="currentColor" fill-rule="evenodd" d="M6.542 21.502a1 1 0 1 0 1.932.517l1.598-5.964a1 1 0 0 0-1.931-.518l-1.599 5.964Zm10.908-.03a1 1 0 1 1-1.932.517l-1.303-4.863a1 1 0 1 1 1.932-.517l1.303 4.862Z" clip-rule="evenodd" opacity=".3"/><path fill="currentColor" fill-rule="evenodd" d="M7.36 1a2 2 0 0 0-1.972 2.329l1.542 9.253a.5.5 0 0 0 .494.418h9.152a.5.5 0 0 0 .494-.418l1.542-9.253A2 2 0 0 0 16.639 1H7.361ZM5.5 14a1.5 1.5 0 0 0 0 3h13a1.5 1.5 0 0 0 0-3h-13Z" clip-rule="evenodd"/></svg>
