<svg xmlns="http://www.w3.org/2000/svg" fill="none" viewBox="0 0 24 24"><path fill="currentColor" fill-rule="evenodd" d="m5 15-2 6.5 6.5-2L5 15Z" clip-rule="evenodd" opacity=".3"/><path fill="currentColor" fill-rule="evenodd" d="M13 2C7.477 2 3 6.477 3 12s4.477 10 10 10 10-4.477 10-10S18.523 2 13 2ZM7.445 12.168a1 1 0 0 0-.277 1.387C8.678 15.819 10.646 17 13 17c2.354 0 4.322-1.18 5.832-3.445a1 1 0 0 0-1.664-1.11C16.01 14.181 14.646 15 13 15c-1.646 0-3.01-.82-4.168-2.555a1 1 0 0 0-1.387-.277Z" clip-rule="evenodd"/></svg>
