<svg xmlns="http://www.w3.org/2000/svg" fill="none" viewBox="0 0 24 24"><path fill="currentColor" fill-rule="evenodd" d="M8 3H6a2 2 0 0 0-2 2v16a2 2 0 0 0 2 2h12a2 2 0 0 0 2-2V5a2 2 0 0 0-2-2h-2v.5A1.5 1.5 0 0 1 14.5 5h-5A1.5 1.5 0 0 1 8 3.5V3Z" clip-rule="evenodd" opacity=".3"/><path fill="currentColor" fill-rule="evenodd" d="M13 2a1 1 0 1 0-2 0H9.5a.5.5 0 0 0-.5.5v1a.5.5 0 0 0 .5.5h5a.5.5 0 0 0 .5-.5v-1a.5.5 0 0 0-.5-.5H13Z" clip-rule="evenodd"/><rect width="7" height="2" x="10" y="9" fill="currentColor" opacity=".3" rx="1"/><rect width="2" height="2" x="7" y="9" fill="currentColor" opacity=".3" rx="1"/><rect width="2" height="2" x="7" y="13" fill="currentColor" opacity=".3" rx="1"/><rect width="7" height="2" x="10" y="13" fill="currentColor" opacity=".3" rx="1"/><rect width="2" height="2" x="7" y="17" fill="currentColor" opacity=".3" rx="1"/><rect width="7" height="2" x="10" y="17" fill="currentColor" opacity=".3" rx="1"/></svg>
