<svg xmlns="http://www.w3.org/2000/svg" fill="none" viewBox="0 0 24 24"><path fill="currentColor" fill-rule="evenodd" d="M8 3H6a2 2 0 0 0-2 2v16a2 2 0 0 0 2 2h12a2 2 0 0 0 2-2V5a2 2 0 0 0-2-2h-2v.5A1.5 1.5 0 0 1 14.5 5h-5A1.5 1.5 0 0 1 8 3.5V3Z" clip-rule="evenodd" opacity=".3"/><path fill="currentColor" fill-rule="evenodd" d="M10.875 15.75a.946.946 0 0 1-.67-.287l-1.918-1.917a.926.926 0 0 1 0-1.342c.384-.383 1.007-.383 1.342 0l1.246 1.246 3.162-3.162a.926.926 0 0 1 1.342 0 .926.926 0 0 1 0 1.341l-3.833 3.834a.946.946 0 0 1-.671.287ZM13 2a1 1 0 1 0-2 0H9.5a.5.5 0 0 0-.5.5v1a.5.5 0 0 0 .5.5h5a.5.5 0 0 0 .5-.5v-1a.5.5 0 0 0-.5-.5H13Z" clip-rule="evenodd"/></svg>
