<svg xmlns="http://www.w3.org/2000/svg" fill="none" viewBox="0 0 24 24"><path fill="currentColor" fill-rule="evenodd" d="M6.685 7.272a1 1 0 0 1 .043 1.413L3.373 12.25l3.355 3.565a1 1 0 0 1-1.456 1.37l-4-4.25a1 1 0 0 1 0-1.37l4-4.25a1 1 0 0 1 1.413-.043Zm10.63 0a1 1 0 0 0-.043 1.413l3.355 3.565-3.355 3.565a1 1 0 0 0 1.456 1.37l4-4.25a1 1 0 0 0 0-1.37l-4-4.25a1 1 0 0 0-1.413-.043Z" clip-rule="evenodd"/><rect width="2" height="16" x="13.105" y="4.014" fill="currentColor" opacity=".3" rx="1" transform="rotate(15 13.105 4.014)"/></svg>
