<svg xmlns="http://www.w3.org/2000/svg" fill="none" viewBox="0 0 24 24"><path fill="currentColor" fill-rule="evenodd" d="M5.5 2A1.5 1.5 0 0 0 4 3.5v3A1.5 1.5 0 0 0 5.5 8h13A1.5 1.5 0 0 0 20 6.5v-3A1.5 1.5 0 0 0 18.5 2h-13ZM11 4a1 1 0 1 0 0 2h2a1 1 0 1 0 0-2h-2Z" clip-rule="evenodd" opacity=".3"/><path fill="currentColor" fill-rule="evenodd" d="M5.5 9A1.5 1.5 0 0 0 4 10.5v3A1.5 1.5 0 0 0 5.5 15h13a1.5 1.5 0 0 0 1.5-1.5v-3A1.5 1.5 0 0 0 18.5 9h-13Zm5.5 2a1 1 0 1 0 0 2h2a1 1 0 1 0 0-2h-2Zm-7 6.5A1.5 1.5 0 0 1 5.5 16h13a1.5 1.5 0 0 1 1.5 1.5v3a1.5 1.5 0 0 1-1.5 1.5h-13A1.5 1.5 0 0 1 4 20.5v-3Zm7 .5a1 1 0 1 0 0 2h2a1 1 0 1 0 0-2h-2Z" clip-rule="evenodd"/></svg>
