<svg xmlns="http://www.w3.org/2000/svg" fill="none" viewBox="0 0 24 24"><path fill="currentColor" fill-rule="evenodd" d="M2.56 10.682a1.5 1.5 0 0 0 0 2.121l2.122 2.122a1.5 1.5 0 0 0 2.121 0l2.122-2.122a1.5 1.5 0 0 0 0-2.121L6.803 8.561a1.5 1.5 0 0 0-2.121 0l-2.121 2.121Zm12 0a1.5 1.5 0 0 0 0 2.121l2.122 2.122a1.5 1.5 0 0 0 2.121 0l2.122-2.122a1.5 1.5 0 0 0 0-2.121l-2.122-2.121a1.5 1.5 0 0 0-2.121 0l-2.121 2.121Z" clip-rule="evenodd" opacity=".3"/><path fill="currentColor" fill-rule="evenodd" d="M8.56 4.682a1.5 1.5 0 0 0 0 2.121l2.122 2.122a1.5 1.5 0 0 0 2.121 0l2.122-2.122a1.5 1.5 0 0 0 0-2.121l-2.122-2.121a1.5 1.5 0 0 0-2.121 0L8.561 4.682Zm0 12a1.5 1.5 0 0 0 0 2.121l2.122 2.122a1.5 1.5 0 0 0 2.121 0l2.122-2.122a1.5 1.5 0 0 0 0-2.121l-2.122-2.121a1.5 1.5 0 0 0-2.121 0l-2.121 2.121Z" clip-rule="evenodd"/></svg>
