<svg xmlns="http://www.w3.org/2000/svg" fill="none" viewBox="0 0 24 24"><path fill="currentColor" d="M5.857 2h7.88a1.5 1.5 0 0 1 .968.355l4.764 4.029A1.5 1.5 0 0 1 20 7.529v12.554c0 1.79-.02 1.917-1.857 1.917H5.857C4.02 22 4 21.874 4 20.083V3.917C4 2.127 4.02 2 5.857 2Z" opacity=".3"/><rect width="3.143" height="3.143" x="6.762" y="12.127" fill="currentColor" opacity=".3" rx=".75" transform="rotate(-45 6.762 12.127)"/><rect width="3.143" height="3.143" x="13.048" y="12.127" fill="currentColor" opacity=".3" rx=".75" transform="rotate(-45 13.048 12.127)"/><rect width="3.143" height="3.143" x="9.905" y="15.27" fill="currentColor" rx=".75" transform="rotate(-45 9.905 15.27)"/><rect width="3.143" height="3.143" x="9.905" y="8.984" fill="currentColor" rx=".75" transform="rotate(-45 9.905 8.984)"/></svg>
