<svg xmlns="http://www.w3.org/2000/svg" fill="none" viewBox="0 0 24 24"><path fill="currentColor" fill-rule="evenodd" d="M3.5 3A1.5 1.5 0 0 0 2 4.5v14A1.5 1.5 0 0 0 3.5 20h6a1.5 1.5 0 0 0 1.5-1.5v-14A1.5 1.5 0 0 0 9.5 3h-6ZM9 9a1 1 0 0 0-1 1v2a1 1 0 1 0 2 0v-2a1 1 0 0 0-1-1Z" clip-rule="evenodd" opacity=".3"/><path fill="currentColor" fill-rule="evenodd" d="M20.5 3A1.5 1.5 0 0 1 22 4.5v14a1.5 1.5 0 0 1-1.5 1.5h-6a1.5 1.5 0 0 1-1.5-1.5v-14A1.5 1.5 0 0 1 14.5 3h6ZM15 9a1 1 0 0 1 1 1v2a1 1 0 1 1-2 0v-2a1 1 0 0 1 1-1Z" clip-rule="evenodd"/></svg>
