<svg xmlns="http://www.w3.org/2000/svg" fill="none" viewBox="0 0 24 24"><path fill="currentColor" fill-rule="evenodd" d="M2 19.5A1.5 1.5 0 0 0 3.5 21h17a1.5 1.5 0 0 0 1.5-1.5v-11A1.5 1.5 0 0 0 20.5 7H10L7.44 4.44A1.5 1.5 0 0 0 6.378 4H3.5A1.5 1.5 0 0 0 2 5.5v14Z" clip-rule="evenodd" opacity=".3"/><path fill="currentColor" fill-rule="evenodd" d="M9.172 15.414a1 1 0 1 0 1.414 1.414L12 15.414l1.414 1.414a1 1 0 1 0 1.414-1.414L13.414 14l1.414-1.414a1 1 0 1 0-1.414-1.414L12 12.586l-1.414-1.414a1 1 0 0 0-1.414 1.414L10.586 14l-1.414 1.414Z" clip-rule="evenodd"/></svg>
