<svg xmlns="http://www.w3.org/2000/svg" fill="none" viewBox="0 0 24 24"><path fill="currentColor" d="M5.857 2h7.88a1.5 1.5 0 0 1 .968.355l4.764 4.029A1.5 1.5 0 0 1 20 7.529v12.554c0 1.79-.02 1.917-1.857 1.917H5.857C4.02 22 4 21.874 4 20.083V3.917C4 2.127 4.02 2 5.857 2Z" opacity=".3"/><path fill="currentColor" fill-rule="evenodd" d="m10.586 13-1.414-1.414a1 1 0 1 1 1.414-1.414L12 11.586l1.414-1.414a1 1 0 1 1 1.414 1.414L13.414 13l1.414 1.414a1 1 0 1 1-1.414 1.414L12 14.414l-1.414 1.414a1 1 0 1 1-1.414-1.414L10.586 13Z" clip-rule="evenodd"/></svg>
