<svg xmlns="http://www.w3.org/2000/svg" fill="none" viewBox="0 0 24 24"><rect width="2" height="4" x="11.5" y="2" fill="currentColor" opacity=".3" rx="1"/><rect width="2" height="5" x="11.5" y="16" fill="currentColor" opacity=".3" rx="1"/><path fill="currentColor" fill-rule="evenodd" d="M15.493 8.044a2.933 2.933 0 0 0-1.093-.846c-.45-.209-.883-.313-1.301-.313-.215 0-.434.019-.655.057-.222.038-.422.11-.599.218a1.48 1.48 0 0 0-.447.418c-.12.171-.18.39-.18.656 0 .228.047.418.143.57.095.152.234.285.417.399.184.114.403.218.656.313s.538.194.855.295c.456.152.931.32 1.425.504a5.33 5.33 0 0 1 1.349.731c.405.304.741.68 1.007 1.13.266.45.399 1.01.399 1.682 0 .773-.143 1.44-.428 2.005a3.997 3.997 0 0 1-1.149 1.396 4.925 4.925 0 0 1-1.653.817c-.62.177-1.26.266-1.919.266a7.923 7.923 0 0 1-2.793-.503c-.9-.336-1.647-.814-2.242-1.435l2.128-2.166c.33.405.763.744 1.301 1.017.539.272 1.074.408 1.606.408.24 0 .475-.025.703-.076.228-.05.428-.133.598-.247.171-.114.308-.266.409-.456.101-.19.152-.418.152-.684 0-.253-.063-.469-.19-.646a1.858 1.858 0 0 0-.542-.485 4.358 4.358 0 0 0-.873-.399 44.91 44.91 0 0 0-1.188-.389c-.43-.14-.852-.304-1.263-.494a4.229 4.229 0 0 1-1.102-.732 3.389 3.389 0 0 1-.78-1.083c-.196-.424-.294-.94-.294-1.548 0-.747.152-1.387.456-1.919a3.964 3.964 0 0 1 1.197-1.311 5.142 5.142 0 0 1 1.672-.75 7.582 7.582 0 0 1 1.881-.238c.76 0 1.536.14 2.327.418.792.279 1.486.69 2.081 1.235l-2.071 2.185Z" clip-rule="evenodd"/></svg>
