<svg xmlns="http://www.w3.org/2000/svg" fill="none" viewBox="0 0 24 24"><path fill="currentColor" fill-rule="evenodd" d="M12.409 3.63a6.453 6.453 0 0 1 7.98.91 5.55 5.55 0 0 1 0 7.848L9.828 22.951c-.2.2-.525.2-.725 0l-7.81-7.81a.442.442 0 0 1 0-.625l9.587-9.587L13 7.05c.04.04.082.076.127.108a3.001 3.001 0 0 0 4.823 3.428 3 3 0 0 0-3.428-4.823.997.997 0 0 0-.108-.127L12.41 3.631Z" clip-rule="evenodd" opacity=".3"/><rect width="8" height="2" x="8.05" y="10.586" fill="currentColor" opacity=".3" rx="1" transform="rotate(45 8.05 10.586)"/><rect width="6" height="2" x="5.929" y="14.121" fill="currentColor" opacity=".3" rx="1" transform="rotate(45 5.929 14.121)"/></svg>
