<svg xmlns="http://www.w3.org/2000/svg" fill="none" viewBox="0 0 24 24"><path fill="currentColor" d="M5.857 2h7.88a1.5 1.5 0 0 1 .968.355l4.764 4.029A1.5 1.5 0 0 1 20 7.529v12.554c0 1.79-.02 1.917-1.857 1.917H5.857C4.02 22 4 21.874 4 20.083V3.917C4 2.127 4.02 2 5.857 2Z" opacity=".3"/><path fill="currentColor" fill-rule="evenodd" d="M15.27 12.654a.5.5 0 0 0-.383-.823h-1.956V9.823a.5.5 0 0 0-.5-.5h-1.023a.5.5 0 0 0-.5.5v2.008H8.95a.5.5 0 0 0-.381.823l2.968 3.505a.5.5 0 0 0 .763 0l2.968-3.505Z" clip-rule="evenodd"/></svg>
