<svg xmlns="http://www.w3.org/2000/svg" fill="none" viewBox="0 0 24 24"><path fill="currentColor" fill-rule="evenodd" d="M2 19.5A1.5 1.5 0 0 0 3.5 21h17a1.5 1.5 0 0 0 1.5-1.5v-11A1.5 1.5 0 0 0 20.5 7H10L7.44 4.44A1.5 1.5 0 0 0 6.378 4H3.5A1.5 1.5 0 0 0 2 5.5v14Z" clip-rule="evenodd" opacity=".3"/><path fill="currentColor" fill-rule="evenodd" d="M15.27 13.654a.5.5 0 0 0-.383-.823h-1.956v-2.008a.5.5 0 0 0-.5-.5h-1.023a.5.5 0 0 0-.5.5v2.008H8.95a.5.5 0 0 0-.381.823l2.968 3.505a.5.5 0 0 0 .763 0l2.968-3.505Z" clip-rule="evenodd"/></svg>
