<svg xmlns="http://www.w3.org/2000/svg" fill="none" viewBox="0 0 24 24"><rect width="2" height="12" x="7" y="7" fill="currentColor" opacity=".3" rx="1" transform="rotate(-90 7 7)"/><path fill="currentColor" d="M9.707 8.293a1 1 0 0 1-1.414 1.414l-3-3a1 1 0 0 1 0-1.414l3-3a1 1 0 0 1 1.414 1.414L7.414 6l2.293 2.293Z"/><rect width="2" height="12" fill="currentColor" opacity=".3" rx="1" transform="matrix(0 -1 -1 0 17 19)"/><path fill="currentColor" d="M14.293 20.293a1 1 0 0 0 1.414 1.414l3-3a1 1 0 0 0 0-1.414l-3-3a1 1 0 0 0-1.414 1.414L16.586 18l-2.293 2.293Z"/></svg>
