<svg xmlns="http://www.w3.org/2000/svg" fill="none" viewBox="0 0 24 24"><path fill="currentColor" d="M17 8a1 1 0 1 1 0-2h1a4 4 0 0 1 4 4v8a4 4 0 0 1-4 4H6a4 4 0 0 1-4-4V9.993a4 4 0 0 1 4-4h1a1 1 0 1 1 0 2H6a2 2 0 0 0-2 2V18a2 2 0 0 0 2 2h12a2 2 0 0 0 2-2v-8a2 2 0 0 0-2-2h-1Z" opacity=".3"/><rect width="2" height="12" fill="currentColor" opacity=".3" rx="1" transform="matrix(-1 0 0 1 13 2)"/><path fill="currentColor" d="m12 2.414 2.293 2.293a1 1 0 1 0 1.414-1.414l-3-3a1 1 0 0 0-1.414 0l-3 3a1 1 0 0 0 1.414 1.414L12 2.414Z"/></svg>
