<svg xmlns="http://www.w3.org/2000/svg" fill="none" viewBox="0 0 24 24"><path fill="currentColor" fill-rule="evenodd" d="M13.736 2H5.857C4.02 2 4 2.126 4 3.917v16.166C4 21.873 4.02 22 5.857 22h12.286C19.98 22 20 21.874 20 20.083V7.53a1.5 1.5 0 0 0-.531-1.145l-4.764-4.03A1.5 1.5 0 0 0 13.736 2Zm-3.532 13.463a.946.946 0 0 0 .671.287c.24 0 .48-.096.67-.287l3.834-3.834a.926.926 0 0 0 0-1.341.926.926 0 0 0-1.341 0l-3.163 3.162-1.246-1.246c-.335-.383-.958-.383-1.341 0a.926.926 0 0 0 0 1.342l1.916 1.917Z" clip-rule="evenodd" opacity=".3"/><path fill="currentColor" fill-rule="evenodd" d="M10.875 15.75a.946.946 0 0 1-.67-.287l-1.918-1.917a.926.926 0 0 1 0-1.342c.384-.383 1.007-.383 1.342 0l1.246 1.246 3.162-3.162a.926.926 0 0 1 1.342 0 .926.926 0 0 1 0 1.341l-3.833 3.834a.946.946 0 0 1-.671.287Z" clip-rule="evenodd"/></svg>
