<svg xmlns="http://www.w3.org/2000/svg" fill="none" viewBox="0 0 24 24"><path fill="currentColor" fill-rule="evenodd" d="M10.984 21H20.5a1.5 1.5 0 0 0 1.5-1.5v-11A1.5 1.5 0 0 0 20.5 7H10L7.44 4.44A1.5 1.5 0 0 0 6.378 4H3.5A1.5 1.5 0 0 0 2 5.5v7.65A7.5 7.5 0 0 1 10.984 21Z" clip-rule="evenodd"/><path fill="currentColor" d="M2.875 22.75a.946.946 0 0 1-.67-.288L.287 20.546a.926.926 0 0 1 0-1.342c.383-.383 1.006-.383 1.341 0l1.246 1.246 3.162-3.162a.926.926 0 0 1 1.342 0 .926.926 0 0 1 0 1.341l-3.833 3.833a.946.946 0 0 1-.671.288Z" opacity=".3"/></svg>
