<svg xmlns="http://www.w3.org/2000/svg" fill="none" viewBox="0 0 24 24"><path fill="currentColor" fill-rule="evenodd" d="M10.984 21H20.5a1.5 1.5 0 0 0 1.5-1.5v-11A1.5 1.5 0 0 0 20.5 7H10L7.44 4.44A1.5 1.5 0 0 0 6.378 4H3.5A1.5 1.5 0 0 0 2 5.5v7.65A7.5 7.5 0 0 1 10.984 21Z" clip-rule="evenodd"/><path fill="currentColor" fill-rule="evenodd" d="M2 18.5a2.5 2.5 0 0 1 5 0v.5a1 1 0 0 1 1 1v3a1 1 0 0 1-1 1H2a1 1 0 0 1-1-1v-3a1 1 0 0 1 1-1v-.5ZM4.5 17A1.5 1.5 0 0 0 3 18.5v.5h3v-.5A1.5 1.5 0 0 0 4.5 17Z" clip-rule="evenodd" opacity=".3"/></svg>
