<svg xmlns="http://www.w3.org/2000/svg" fill="none" viewBox="0 0 24 24"><path fill="currentColor" fill-rule="evenodd" d="M2 19.5A1.5 1.5 0 0 0 3.5 21h17a1.5 1.5 0 0 0 1.5-1.5v-11A1.5 1.5 0 0 0 20.5 7H10L7.44 4.44A1.5 1.5 0 0 0 6.378 4H3.5A1.5 1.5 0 0 0 2 5.5v14Z" clip-rule="evenodd" opacity=".3"/><path fill="currentColor" d="M14.35 10.5c-.805 0-1.746.912-2.25 1.5-.504-.588-1.445-1.5-2.25-1.5-1.424 0-2.25 1.111-2.25 2.525 0 2.35 4.5 4.975 4.5 4.975s4.5-2.625 4.5-4.875c0-1.414-.826-2.625-2.25-2.625Z" opacity=".3"/></svg>
