<svg xmlns="http://www.w3.org/2000/svg" fill="none" viewBox="0 0 24 24"><path fill="currentColor" fill-rule="evenodd" d="M2 19.5A1.5 1.5 0 0 0 3.5 21h17a1.5 1.5 0 0 0 1.5-1.5v-11A1.5 1.5 0 0 0 20.5 7H10L7.44 4.44A1.5 1.5 0 0 0 6.378 4H3.5A1.5 1.5 0 0 0 2 5.5v14Z" clip-rule="evenodd" opacity=".3"/><path fill="currentColor" fill-rule="evenodd" d="M11.297 18.372c0 .742.962 1.034 1.374.416l3.299-4.949a.75.75 0 0 0-.624-1.166h-2.687V9.7c0-.742-.962-1.033-1.374-.416l-3.299 4.949a.75.75 0 0 0 .624 1.166h2.687v2.973Z" clip-rule="evenodd" opacity=".3"/></svg>
