<svg xmlns="http://www.w3.org/2000/svg" fill="none" viewBox="0 0 24 24"><path fill="currentColor" fill-rule="evenodd" d="M2 19.5A1.5 1.5 0 0 0 3.5 21h17a1.5 1.5 0 0 0 1.5-1.5v-11A1.5 1.5 0 0 0 20.5 7H10L7.44 4.44A1.5 1.5 0 0 0 6.378 4H3.5A1.5 1.5 0 0 0 2 5.5v14Z" clip-rule="evenodd" opacity=".3"/><path fill="currentColor" fill-rule="evenodd" d="m12 17.228-2.198 1.207a.527.527 0 0 1-.727-.236.585.585 0 0 1-.054-.357l.42-2.557-1.778-1.812a.58.58 0 0 1-.01-.795.53.53 0 0 1 .308-.164l2.457-.373 1.1-2.327a.528.528 0 0 1 .965 0l1.099 2.327 2.457.373a.56.56 0 0 1 .455.637.57.57 0 0 1-.157.322l-1.778 1.812.42 2.557a.56.56 0 0 1-.44.65.518.518 0 0 1-.34-.057L12 17.228Z" clip-rule="evenodd" opacity=".3"/></svg>
