<svg xmlns="http://www.w3.org/2000/svg" fill="none" viewBox="0 0 24 24"><path fill="currentColor" fill-rule="evenodd" d="M.18 19 7.1 4.64 14.02 19h-1.96l-1.76-3.72H3.9L2.14 19H.18ZM7.1 8.52 4.7 13.6h4.8L7.1 8.52Z" clip-rule="evenodd"/><path fill="currentColor" fill-rule="evenodd" d="M21.34 18v1h1.72V9h-1.72v1c-.84-.76-1.96-1.16-3.18-1.16-2.94 0-5.1 2.26-5.1 5.16 0 2.9 2.16 5.16 5.1 5.16 1.22 0 2.34-.4 3.18-1.16Zm0-2.08c-.58.94-1.7 1.62-3.14 1.62-1.96 0-3.36-1.56-3.36-3.54s1.4-3.54 3.36-3.54c1.44 0 2.56.68 3.14 1.62v3.84Z" clip-rule="evenodd" opacity=".3"/></svg>
