<svg xmlns="http://www.w3.org/2000/svg" fill="none" viewBox="0 0 24 24"><path fill="currentColor" fill-rule="evenodd" d="M3 7a1 1 0 0 1 1-1h16a1 1 0 0 1 1 1v1a1 1 0 0 1-1 1H4a1 1 0 0 1-1-1V7Zm1 5a1 1 0 0 1 1-1h5a1 1 0 0 1 1 1v7a1 1 0 0 1-1 1H5a1 1 0 0 1-1-1v-7Zm10-1a1 1 0 0 0-1 1v7a1 1 0 0 0 1 1h5a1 1 0 0 0 1-1v-7a1 1 0 0 0-1-1h-5Z" clip-rule="evenodd"/><path fill="currentColor" d="M14.445 2.168a1 1 0 1 1 1.11 1.664L12 6.202l-3.555-2.37a1 1 0 0 1 1.11-1.664L12 3.798l2.445-1.63Z" opacity=".3"/></svg>
