<svg xmlns="http://www.w3.org/2000/svg" fill="none" viewBox="0 0 24 24"><path fill="currentColor" fill-rule="evenodd" d="M16.543 17.457 11 11.914V4a1 1 0 1 1 2 0v7.086l4.957 4.957 2.19-2.19a.5.5 0 0 1 .853.354V19.5a.5.5 0 0 1-.5.5h-5.293a.5.5 0 0 1-.353-.854l1.689-1.689Z" clip-rule="evenodd"/><path fill="currentColor" fill-rule="evenodd" d="m8.854 13.163 1.292 1.527-2.901 2.455 2.001 2.002a.5.5 0 0 1-.353.853H3.529a.5.5 0 0 1-.5-.5v-5.364a.5.5 0 0 1 .853-.353l1.944 1.943 3.028-2.563Z" clip-rule="evenodd" opacity=".3"/></svg>
