<svg xmlns="http://www.w3.org/2000/svg" fill="none" viewBox="0 0 24 24"><path fill="currentColor" fill-rule="evenodd" d="M3 19.5A1.5 1.5 0 0 0 4.5 21h17a1.5 1.5 0 0 0 1.5-1.5v-11A1.5 1.5 0 0 0 21.5 7H11L8.44 4.44A1.5 1.5 0 0 0 7.378 4H4.5A1.5 1.5 0 0 0 3 5.5v14Z" clip-rule="evenodd" opacity=".3"/><path fill="currentColor" fill-rule="evenodd" d="M1 17.5A1.5 1.5 0 0 0 2.5 19h17a1.5 1.5 0 0 0 1.5-1.5v-11A1.5 1.5 0 0 0 19.5 5H9L6.44 2.44A1.5 1.5 0 0 0 5.378 2H2.5A1.5 1.5 0 0 0 1 3.5v14Z" clip-rule="evenodd"/></svg>
