<svg xmlns="http://www.w3.org/2000/svg" fill="none" viewBox="0 0 24 24"><path fill="currentColor" fill-rule="evenodd" d="M1.634 19V5.51h1.729v5.757h7.448V5.51h1.729V19h-1.729v-6.061H3.363V19H1.634Z" clip-rule="evenodd"/><path fill="currentColor" fill-rule="evenodd" d="M19.874 13.319 14.649 19h8.873v-1.52h-5.453l3.116-3.458c1.634-1.767 2.337-3.021 2.337-4.617 0-2.28-1.805-4.047-4.104-4.047-2.299 0-4.085 1.767-4.085 4.047 0 2.147 1.615 3.914 3.914 3.971.228 0 .399-.019.627-.057Zm2.033-3.914c0 1.463-1.045 2.546-2.489 2.546-1.463 0-2.47-1.083-2.47-2.546 0-1.444 1.007-2.546 2.47-2.546 1.444 0 2.489 1.102 2.489 2.546Z" clip-rule="evenodd" opacity=".3"/></svg>
