<svg xmlns="http://www.w3.org/2000/svg" fill="none" viewBox="0 0 24 24"><path fill="currentColor" fill-rule="evenodd" d="M3 10.122a2 2 0 0 1 .957-1.707L11.48 3.82a1 1 0 0 1 1.043 0l7.52 4.596A2 2 0 0 1 21 10.122V19a2 2 0 0 1-2 2H5a2 2 0 0 1-2-2v-8.878Z" clip-rule="evenodd" opacity=".3"/><path fill="currentColor" fill-rule="evenodd" d="M13.8 12c-.644 0-1.397.73-1.8 1.2-.403-.47-1.156-1.2-1.8-1.2-1.14 0-1.8.889-1.8 2.02C8.4 15.9 12 18 12 18s3.6-2.1 3.6-3.9c0-1.131-.66-2.1-1.8-2.1Z" clip-rule="evenodd" opacity=".3"/></svg>
