<svg xmlns="http://www.w3.org/2000/svg" fill="none" viewBox="0 0 24 24"><path fill="currentColor" d="M9.86 6.012a.5.5 0 0 1 .85.298l.524 4.709a.5.5 0 0 1-.552.552l-4.709-.523a.5.5 0 0 1-.298-.85L7.06 8.811 5.559 7.31a.5.5 0 0 1 0-.707l.707-.707a.5.5 0 0 1 .707 0l1.502 1.501L9.86 6.012Z" opacity=".3"/><path fill="currentColor" fill-rule="evenodd" d="m12.08 14.784 2.204-2.204a2 2 0 0 0 .375-2.309l-.125-.25a2 2 0 0 1 .374-2.308l2.733-2.733a.5.5 0 0 1 .801.13l1.104 2.208a4.387 4.387 0 0 1-.822 5.065l-5.999 5.998a5.427 5.427 0 0 1-5.553 1.311l-2.415-.804a.5.5 0 0 1-.195-.828l2.651-2.652a2 2 0 0 1 2.309-.374l.25.125a2 2 0 0 0 2.308-.375Z" clip-rule="evenodd"/></svg>
