<svg xmlns="http://www.w3.org/2000/svg" fill="none" viewBox="0 0 24 24"><path fill="currentColor" fill-rule="evenodd" d="M5 9a2 2 0 0 0-2 2v9a2 2 0 0 0 2 2h14a2 2 0 0 0 2-2v-9a2 2 0 0 0-2-2H5Zm14.16 2.144a.75.75 0 0 0-1.016-.304L12 14.148 5.856 10.84a.75.75 0 0 0-.712 1.32l6.5 3.5c.222.12.49.12.712 0l6.5-3.5a.75.75 0 0 0 .304-1.016Z" clip-rule="evenodd"/><path fill="currentColor" d="M15.27 3.654a.5.5 0 0 0-.383-.823h-1.956V.823a.5.5 0 0 0-.5-.5h-1.023a.5.5 0 0 0-.5.5v2.008H8.95a.5.5 0 0 0-.381.823l2.968 3.505a.5.5 0 0 0 .763 0l2.968-3.505Z" opacity=".3"/></svg>
