<svg xmlns="http://www.w3.org/2000/svg" fill="none" viewBox="0 0 24 24"><path fill="currentColor" fill-rule="evenodd" d="M22 17v4a2 2 0 0 1-2 2H4a2 2 0 0 1-2-2v-4h4.28l.543 1.633A2 2 0 0 0 8.721 20h6.661a2 2 0 0 0 1.789-1.106L18.118 17H22Z" clip-rule="evenodd"/><path fill="currentColor" fill-rule="evenodd" d="m2.563 15 3.364-5.98A2 2 0 0 1 7.67 8h8.66a2 2 0 0 1 1.744 1.02L21.436 15h-3.319a2 2 0 0 0-1.789 1.106L15.382 18H8.721l-.544-1.633A2 2 0 0 0 6.279 15H2.563Z" clip-rule="evenodd" opacity=".3"/><path fill="currentColor" d="M15.27 3.654a.5.5 0 0 0-.383-.823h-1.956V.823a.5.5 0 0 0-.5-.5h-1.023a.5.5 0 0 0-.5.5v2.008H8.95a.5.5 0 0 0-.381.823l2.968 3.505a.5.5 0 0 0 .763 0l2.968-3.505Z"/></svg>
