<svg xmlns="http://www.w3.org/2000/svg" fill="none" viewBox="0 0 24 24"><path fill="currentColor" fill-rule="evenodd" d="M7 5a1 1 0 0 0 0 2h10a1 1 0 1 0 0-2H7Zm0 4a1 1 0 0 0 0 2h10a1 1 0 1 0 0-2H7Zm-1 5a1 1 0 0 1 1-1h10a1 1 0 1 1 0 2H7a1 1 0 0 1-1-1Zm1 3a1 1 0 1 0 0 2h10a1 1 0 1 0 0-2H7Z" clip-rule="evenodd" opacity=".3"/><path fill="currentColor" fill-rule="evenodd" d="M5.5 2A1.5 1.5 0 0 0 4 3.5v17a1.5 1.5 0 0 0 3 0v-17A1.5 1.5 0 0 0 5.5 2Zm13 0A1.5 1.5 0 0 0 17 3.5v17a1.5 1.5 0 0 0 3 0v-17A1.5 1.5 0 0 0 18.5 2Z" clip-rule="evenodd"/></svg>
