<svg xmlns="http://www.w3.org/2000/svg" fill="none" viewBox="0 0 83 83"><rect width="13" height="14" x="68" y="5" fill="currentColor" rx="1.5"/><rect width="5" height="14" x="61" y="5" fill="currentColor" opacity=".3" rx="1"/><path fill="currentColor" fill-rule="evenodd" d="M9 64a1 1 0 0 1 1-1h11a1 1 0 0 1 1 1v2a1 1 0 0 1-1 1H10a1 1 0 0 1-1-1v-2Zm0 6a1 1 0 0 1 1-1h11a1 1 0 0 1 1 1v2a1 1 0 0 1-1 1H10a1 1 0 0 1-1-1v-2Zm1 5a1 1 0 0 0-1 1v2a1 1 0 0 0 1 1h11a1 1 0 0 0 1-1v-2a1 1 0 0 0-1-1H10Z" clip-rule="evenodd"/><rect width="5" height="16" x="2" y="63" fill="currentColor" opacity=".3" rx="1"/></svg>
