<svg xmlns="http://www.w3.org/2000/svg" fill="none" viewBox="0 0 24 24"><rect width="7" height="7" x="4" y="4" fill="currentColor" rx="1.5"/><path fill="currentColor" fill-rule="evenodd" d="M13 5.5A1.5 1.5 0 0 1 14.5 4h4A1.5 1.5 0 0 1 20 5.5v4a1.5 1.5 0 0 1-1.5 1.5h-4A1.5 1.5 0 0 1 13 9.5v-4Zm-9 9A1.5 1.5 0 0 1 5.5 13h4a1.5 1.5 0 0 1 1.5 1.5v4A1.5 1.5 0 0 1 9.5 20h-4A1.5 1.5 0 0 1 4 18.5v-4ZM14.5 13a1.5 1.5 0 0 0-1.5 1.5v4a1.5 1.5 0 0 0 1.5 1.5h4a1.5 1.5 0 0 0 1.5-1.5v-4a1.5 1.5 0 0 0-1.5-1.5h-4Z" clip-rule="evenodd" opacity=".3"/></svg>
