<svg xmlns="http://www.w3.org/2000/svg" fill="none" viewBox="0 0 24 24"><path fill="currentColor" fill-rule="evenodd" d="M5.5 4A1.5 1.5 0 0 0 4 5.5v1A1.5 1.5 0 0 0 5.5 8h4A1.5 1.5 0 0 0 11 6.5v-1A1.5 1.5 0 0 0 9.5 4h-4Zm9 12a1.5 1.5 0 0 0-1.5 1.5v1a1.5 1.5 0 0 0 1.5 1.5h4a1.5 1.5 0 0 0 1.5-1.5v-1a1.5 1.5 0 0 0-1.5-1.5h-4Z" clip-rule="evenodd"/><path fill="currentColor" fill-rule="evenodd" d="M14.5 4A1.5 1.5 0 0 0 13 5.5v7a1.5 1.5 0 0 0 1.5 1.5h4a1.5 1.5 0 0 0 1.5-1.5v-7A1.5 1.5 0 0 0 18.5 4h-4Zm-9 6A1.5 1.5 0 0 0 4 11.5v7A1.5 1.5 0 0 0 5.5 20h4a1.5 1.5 0 0 0 1.5-1.5v-7A1.5 1.5 0 0 0 9.5 10h-4Z" clip-rule="evenodd" opacity=".3"/></svg>
