<svg xmlns="http://www.w3.org/2000/svg" fill="none" viewBox="0 0 24 24"><path fill="currentColor" fill-rule="evenodd" d="M22 15v4a2 2 0 0 1-2 2H4a2 2 0 0 1-2-2v-4h4.28l.543 1.633A2 2 0 0 0 8.721 18h6.661a2 2 0 0 0 1.789-1.106L18.118 15H22Z" clip-rule="evenodd"/><path fill="currentColor" fill-rule="evenodd" d="m2.563 13 3.364-5.98A2 2 0 0 1 7.67 6h8.66a2 2 0 0 1 1.744 1.02L21.436 13h-3.319a2 2 0 0 0-1.789 1.106L15.382 16H8.721l-.544-1.633A2 2 0 0 0 6.279 13H2.563Z" clip-rule="evenodd" opacity=".3"/></svg>
