<svg xmlns="http://www.w3.org/2000/svg" fill="none" viewBox="0 0 24 24"><circle cx="12" cy="9" r="8" fill="currentColor" opacity=".3"/><path fill="currentColor" fill-rule="evenodd" d="m6.538 9 4.03 10.362 1.408-.547 1.398.552L17.47 9H6.538Zm2.924 2h5.068l-2.554 6.465L9.462 11Z" clip-rule="evenodd" opacity=".3"/><path fill="currentColor" d="M10 22h4a2 2 0 1 1-4 0Z" opacity=".3"/><path fill="currentColor" fill-rule="evenodd" d="M8 17a1 1 0 0 1 1-1h6a1 1 0 1 1 0 2 1 1 0 1 1 0 2 1 1 0 1 1 0 2H9a1 1 0 1 1 0-2 1 1 0 1 1 0-2 1 1 0 0 1-1-1Z" clip-rule="evenodd"/></svg>
