<svg xmlns="http://www.w3.org/2000/svg" fill="none" viewBox="0 0 24 24"><path fill="currentColor" fill-rule="evenodd" d="M6 2a1 1 0 0 0-1 1v9a1 1 0 0 0 1 1h3.143A2.775 2.775 0 0 1 9 12.119V9.5c0-1.013.855-1.833 1.91-1.833 1.053 0 1.908.82 1.908 1.833v1.833h-1.09V9.5c0-.434-.367-.786-.819-.786-.452 0-.818.352-.818.786v2.619c0 .32.085.62.234.881h3.35c.15-.261.234-.562.234-.881V6.881c0-1.013-.855-1.833-1.909-1.833h-.273c-.904 0-1.636.703-1.636 1.571H9C9 5.173 10.221 4 11.727 4H12c1.657 0 3 1.29 3 2.881v5.238c0 .307-.05.603-.143.881H18a1 1 0 0 0 1-1V3a1 1 0 0 0-1-1H6Z" clip-rule="evenodd" opacity=".3"/><path fill="currentColor" fill-rule="evenodd" d="m9 10.333-5.207-3.76A.5.5 0 0 0 3 6.978V17a2 2 0 0 0 2 2h14a2 2 0 0 0 2-2V6.978a.5.5 0 0 0-.793-.405L15 10.333v1.786C15 13.71 13.657 15 12 15s-3-1.29-3-2.881v-1.786Zm4.91.788L12 12.5l-1.91-1.379v.998c0 1.013.856 1.833 1.91 1.833 1.054 0 1.91-.82 1.91-1.833v-.998Z" clip-rule="evenodd"/></svg>
