<svg xmlns="http://www.w3.org/2000/svg" fill="none" viewBox="0 0 24 24"><path fill="currentColor" fill-rule="evenodd" d="M6 2a1 1 0 0 0-1 1v10a1 1 0 0 0 1 1h12a1 1 0 0 0 1-1V3a1 1 0 0 0-1-1H6Zm6 3.2c.403-.47 1.156-1.2 1.8-1.2 1.14 0 1.8.969 1.8 2.1C15.6 7.9 12 10 12 10S8.4 7.9 8.4 6.02C8.4 4.89 9.06 4 10.2 4c.644 0 1.397.73 1.8 1.2Z" clip-rule="evenodd" opacity=".3"/><path fill="currentColor" fill-rule="evenodd" d="M3 6.978a.5.5 0 0 1 .793-.405L12 12.5l8.207-5.927a.5.5 0 0 1 .793.405V17a2 2 0 0 1-2 2H5a2 2 0 0 1-2-2V6.978Z" clip-rule="evenodd"/></svg>
