<svg xmlns="http://www.w3.org/2000/svg" fill="none" viewBox="0 0 24 24"><path fill="currentColor" fill-rule="evenodd" d="M5 3a1 1 0 0 1 1-1h12a1 1 0 0 1 1 1v9a1 1 0 0 1-1 1H6a1 1 0 0 1-1-1V3Zm2 2.5a.5.5 0 0 1 .5-.5h6a.5.5 0 0 1 0 1h-6a.5.5 0 0 1-.5-.5ZM7.5 7a.5.5 0 0 0 0 1h3a.5.5 0 0 0 0-1h-3Z" clip-rule="evenodd" opacity=".3"/><path fill="currentColor" fill-rule="evenodd" d="M3 6.978a.5.5 0 0 1 .793-.405L12 12.5l8.207-5.927a.5.5 0 0 1 .793.405V17a2 2 0 0 1-2 2H5a2 2 0 0 1-2-2V6.978Z" clip-rule="evenodd"/></svg>
