<svg xmlns="http://www.w3.org/2000/svg" fill="none" viewBox="0 0 24 24"><path fill="currentColor" fill-rule="evenodd" d="M4 7a2 2 0 0 1 2-2h14a2 2 0 0 1 2 2v9a2 2 0 0 1-2 2h-7.016A7.5 7.5 0 0 0 4 11.15V7Zm15.144-.16a.75.75 0 0 1 .712 1.32l-6.5 3.5a.75.75 0 0 1-.712 0l-6.5-3.5a.75.75 0 1 1 .712-1.32L13 10.148l6.144-3.308Z" clip-rule="evenodd"/><path fill="currentColor" fill-rule="evenodd" d="M3 16.5a2.5 2.5 0 0 1 5 0v.5a1 1 0 0 1 1 1v3a1 1 0 0 1-1 1H3a1 1 0 0 1-1-1v-3a1 1 0 0 1 1-1v-.5ZM5.5 15A1.5 1.5 0 0 0 4 16.5v.5h3v-.5A1.5 1.5 0 0 0 5.5 15Z" clip-rule="evenodd" opacity=".3"/></svg>
