<svg xmlns="http://www.w3.org/2000/svg" fill="none" viewBox="0 0 24 24"><path fill="currentColor" fill-rule="evenodd" d="M3 16v1a1 1 0 0 0-1 1v3a1 1 0 0 0 1 1h5a1 1 0 0 0 1-1v-3a1 1 0 0 0-1-1H4v-1a2 2 0 1 0-4 0h1a1 1 0 1 1 2 0Z" clip-rule="evenodd" opacity=".3"/><path fill="currentColor" fill-rule="evenodd" d="M4 7a2 2 0 0 1 2-2h14a2 2 0 0 1 2 2v9a2 2 0 0 1-2 2h-7.016A7.5 7.5 0 0 0 4 11.15V7Zm15.144-.16a.75.75 0 0 1 .712 1.32l-6.5 3.5a.75.75 0 0 1-.712 0l-6.5-3.5a.75.75 0 1 1 .712-1.32L13 10.148l6.144-3.308Z" clip-rule="evenodd"/></svg>
