<svg xmlns="http://www.w3.org/2000/svg" fill="none" viewBox="0 0 24 24"><path fill="currentColor" fill-rule="evenodd" d="M4 7a2 2 0 0 1 2-2h14a2 2 0 0 1 2 2v9a2 2 0 0 1-2 2h-7.016A7.5 7.5 0 0 0 4 11.15V7Zm15.144-.16a.75.75 0 0 1 .712 1.32l-6.5 3.5a.75.75 0 0 1-.712 0l-6.5-3.5a.75.75 0 1 1 .712-1.32L13 10.148l6.144-3.308Z" clip-rule="evenodd"/><path fill="currentColor" fill-rule="evenodd" d="M6.5 14a1 1 0 0 0-1 1v2a1 1 0 1 0 2 0v-2a1 1 0 0 0-1-1Zm0 7a1 1 0 1 0 0-2 1 1 0 0 0 0 2Z" clip-rule="evenodd" opacity=".3"/></svg>
