<svg xmlns="http://www.w3.org/2000/svg" fill="none" viewBox="0 0 24 24"><path fill="currentColor" fill-rule="evenodd" d="M6.5 3A1.5 1.5 0 0 0 5 4.5V6H3.5a1.5 1.5 0 1 0 0 3H5v10.5a1.5 1.5 0 0 0 3 0V9h12.5a1.5 1.5 0 0 0 0-3H8V4.5A1.5 1.5 0 0 0 6.5 3Z" clip-rule="evenodd"/><path fill="currentColor" fill-rule="evenodd" d="M20.5 11H10v6.5a1.5 1.5 0 0 0 1.5 1.5h4a6.481 6.481 0 0 0 4.712-2.023A1 1 0 0 1 19 16v-3a1 1 0 1 1 2 0v2.966a6.47 6.47 0 0 0 1-3.466 1.5 1.5 0 0 0-1.5-1.5Z" clip-rule="evenodd" opacity=".3"/></svg>
