<svg xmlns="http://www.w3.org/2000/svg" fill="none" viewBox="0 0 24 24"><path fill="currentColor" fill-rule="evenodd" d="M18.3 3H7.45C6.097 3 5 4.175 5 5.625v12.75C5 19.825 6.097 21 7.45 21H18.3c.387 0 .7-.336.7-.75V7H9a1 1 0 0 1 0-2h10V3.75c0-.414-.313-.75-.7-.75Z" clip-rule="evenodd" opacity=".3"/><mask id="a" width="14" height="18" x="5" y="3" maskUnits="userSpaceOnUse" style="mask-type:alpha"><path fill="#fff" fill-rule="evenodd" d="M18.3 3H7.45C6.097 3 5 4.175 5 5.625v12.75C5 19.825 6.097 21 7.45 21H18.3c.387 0 .7-.336.7-.75V7H9a1 1 0 0 1 0-2h10V3.75c0-.414-.313-.75-.7-.75Z" clip-rule="evenodd"/></mask><g mask="url(#a)"><path fill="currentColor" fill-rule="evenodd" d="M10.833 19C9.821 19 9 18.316 9 17.472s.82-1.528 1.833-1.528c.215 0 .42.031.611.087v-4.24c0-.313.196-.59.483-.683l3.514-1.075c.442-.144.892.2.892.684v1.075c0 .358-.335.587-.61.652-.398.095-1.416.299-3.056.612v4.447a.835.835 0 0 1-.014.153c-.108.757-.882 1.344-1.82 1.344Z" clip-rule="evenodd"/></g></svg>
