<svg xmlns="http://www.w3.org/2000/svg" fill="none" viewBox="0 0 24 24"><path fill="currentColor" fill-rule="evenodd" d="M2 5a4 4 0 1 0 8 0 4 4 0 0 0-8 0Zm6 0a2 2 0 1 1-4 0 2 2 0 0 1 4 0Z" clip-rule="evenodd"/><path fill="currentColor" fill-rule="evenodd" d="M15 10v2H9a3.982 3.982 0 0 1-2-.535V17a2 2 0 0 0 2 2h6v2H9a4 4 0 0 1-4-4V7h2v1a2 2 0 0 0 2 2h6Z" clip-rule="evenodd" opacity=".3"/><path fill="currentColor" fill-rule="evenodd" d="M14 20a4 4 0 1 0 8 0 4 4 0 0 0-8 0Zm6 0a2 2 0 1 1-4 0 2 2 0 0 1 4 0ZM14 11a4 4 0 1 0 8 0 4 4 0 0 0-8 0Zm6 0a2 2 0 1 1-4 0 2 2 0 0 1 4 0Z" clip-rule="evenodd"/></svg>
