<svg xmlns="http://www.w3.org/2000/svg" fill="none" viewBox="0 0 24 24"><path fill="currentColor" fill-rule="evenodd" d="M6.586 8 5.172 6.586a1 1 0 1 1 1.414-1.414L8 6.586l1.414-1.414a1 1 0 1 1 1.414 1.414L9.414 8l1.414 1.414a1 1 0 0 1-1.414 1.414L8 9.414l-1.414 1.414a1 1 0 0 1-1.414-1.414L6.586 8Z" clip-rule="evenodd" opacity=".3"/><path fill="currentColor" fill-rule="evenodd" d="m13.08 14.784 2.204-2.204a2 2 0 0 0 .375-2.309l-.125-.25a2 2 0 0 1 .374-2.308l2.733-2.733a.5.5 0 0 1 .8.13l1.105 2.208a4.387 4.387 0 0 1-.822 5.065l-5.999 5.998a5.427 5.427 0 0 1-5.553 1.311l-2.415-.804a.5.5 0 0 1-.195-.828l2.65-2.652a2 2 0 0 1 2.31-.374l.25.125a2 2 0 0 0 2.308-.375Z" clip-rule="evenodd"/></svg>
