<svg xmlns="http://www.w3.org/2000/svg" fill="none" viewBox="0 0 24 24"><path fill="currentColor" fill-rule="evenodd" d="M3.877 3.746a1 1 0 0 0-1.225.707L.064 14.112a1 1 0 0 0 .707 1.225l18.352 4.917a1 1 0 0 0 1.225-.707l2.588-9.659a1 1 0 0 0-.707-1.225L3.877 3.746Zm6.588 12.118a4 4 0 1 0 2.07-7.728 4 4 0 0 0-2.07 7.728Z" clip-rule="evenodd" opacity=".3"/><path fill="currentColor" fill-rule="evenodd" d="M1 7a1 1 0 0 1 1-1h19a1 1 0 0 1 1 1v10a1 1 0 0 1-1 1H2a1 1 0 0 1-1-1V7Zm14.5 5a4 4 0 1 1-8 0 4 4 0 0 1 8 0Zm-4 2a2 2 0 1 0 0-4 2 2 0 0 0 0 4Z" clip-rule="evenodd"/></svg>
