<svg xmlns="http://www.w3.org/2000/svg" fill="none" viewBox="0 0 24 24"><path fill="currentColor" fill-rule="evenodd" d="M12 21a9 9 0 1 0 0-18 9 9 0 0 0 0 18Zm-.225-7.707a1 1 0 1 0 0-2 1 1 0 0 0 0 2Zm.863-6.64a2 2 0 1 1-3.864 1.035 2 2 0 0 1 3.864-1.035Zm1.174 12.109a2 2 0 1 0-1.035-3.864 2 2 0 0 0 1.035 3.864Zm-4.71-5.986a2 2 0 1 1-3.863 1.036 2 2 0 0 1 3.863-1.035Zm8.245-.138a2 2 0 1 0-1.035-3.864 2 2 0 0 0 1.035 3.864Z" clip-rule="evenodd" opacity=".3"/><path fill="currentColor" fill-rule="evenodd" d="M12 21h9a1 1 0 1 0 0-2h-3.343A8.962 8.962 0 0 1 12 21Z" clip-rule="evenodd"/></svg>
