<svg xmlns="http://www.w3.org/2000/svg" fill="none" viewBox="0 0 24 24"><path fill="currentColor" fill-rule="evenodd" d="M2 20.5A1.5 1.5 0 0 0 3.5 22h17a1.5 1.5 0 0 0 1.5-1.5v-11A1.5 1.5 0 0 0 20.5 8H10L7.44 5.44A1.5 1.5 0 0 0 6.378 5H3.5A1.5 1.5 0 0 0 2 6.5v14Z" clip-rule="evenodd" opacity=".3"/><path fill="currentColor" fill-rule="evenodd" d="M10.833 20C9.821 20 9 19.316 9 18.472s.82-1.528 1.833-1.528c.215 0 .42.031.611.087v-4.24c0-.313.196-.59.483-.683l3.514-1.075c.442-.144.892.2.892.684v1.075c0 .358-.335.587-.61.652-.398.095-1.416.299-3.056.612v4.447a.835.835 0 0 1-.014.153c-.108.757-.882 1.344-1.82 1.344Z" clip-rule="evenodd"/></svg>
