<svg xmlns="http://www.w3.org/2000/svg" fill="none" viewBox="0 0 24 24"><path fill="currentColor" fill-rule="evenodd" d="M8.979 18.8A1.37 1.37 0 0 0 9 18.552V8s4.026-.767 5-1c.451-.108 1-.482 1-1.068V4.173c0-.79-.736-1.355-1.46-1.119L7.79 4.813c-.47.153-.79.606-.79 1.119v10.21A3.537 3.537 0 0 0 6 16c-1.657 0-3 1.12-3 2.5S4.343 21 6 21c1.535 0 2.8-.96 2.979-2.2Z" clip-rule="evenodd"/><path fill="currentColor" fill-rule="evenodd" d="M15 10a1 1 0 0 1 1-1h4a1 1 0 1 1 0 2h-4a1 1 0 0 1-1-1Zm-2 4a1 1 0 0 1 1-1h6a1 1 0 1 1 0 2h-6a1 1 0 0 1-1-1Zm1 3a1 1 0 1 0 0 2h6a1 1 0 1 0 0-2h-6Z" clip-rule="evenodd" opacity=".3"/></svg>
