<svg xmlns="http://www.w3.org/2000/svg" fill="none" viewBox="0 0 24 24"><path fill="currentColor" fill-rule="evenodd" d="M8.536 20.982A8 8 0 1 1 14.93 9H18a6 6 0 0 1 0 12H9c-.156 0-.31-.006-.464-.018Z" clip-rule="evenodd" opacity=".3"/><path fill="currentColor" fill-rule="evenodd" d="M10.583 18.5C9.71 18.5 9 17.892 9 17.142c0-.75.709-1.358 1.583-1.358.185 0 .363.027.528.077v-3.769c0-.278.169-.524.417-.607l3.034-.956c.383-.128.771.179.771.608v.955c0 .319-.29.522-.527.58-.343.085-1.223.266-2.64.544v3.954a.764.764 0 0 1-.01.135c-.095.673-.763 1.195-1.573 1.195Z" clip-rule="evenodd"/></svg>
