<svg xmlns="http://www.w3.org/2000/svg" fill="none" viewBox="0 0 24 24"><path fill="currentColor" fill-rule="evenodd" d="M20.414 14.828a1 1 0 1 0 1.414-1.414L20.414 12l1.414-1.414a1 1 0 0 0-1.414-1.414L19 10.586l-1.414-1.414a1 1 0 1 0-1.414 1.414L17.586 12l-1.414 1.414a1 1 0 1 0 1.414 1.414L19 13.414l1.414 1.414Z" clip-rule="evenodd" opacity=".3"/><path fill="currentColor" fill-rule="evenodd" d="M12 5.414c0-.89-1.077-1.337-1.707-.707L7 8l-3.392.678A2 2 0 0 0 2 10.64v2.72a2 2 0 0 0 1.608 1.962L7 16l3.293 3.293c.63.63 1.707.184 1.707-.707V5.414Z" clip-rule="evenodd"/></svg>
