<svg xmlns="http://www.w3.org/2000/svg" fill="none" viewBox="0 0 24 25"><path fill="currentColor" fill-rule="evenodd" d="M5 9.013a2 2 0 0 0-2 2v9a2 2 0 0 0 2 2h14a2 2 0 0 0 2-2v-9a2 2 0 0 0-2-2H5Zm14.16 2.145a.75.75 0 0 0-1.016-.305L12 14.162l-6.144-3.309a.75.75 0 1 0-.712 1.32l6.5 3.5c.222.12.49.12.712 0l6.5-3.5a.75.75 0 0 0 .304-1.015Z" clip-rule="evenodd"/><path fill="currentColor" d="M8.65 3.683a.5.5 0 0 0 .382.823h1.956v2.007a.5.5 0 0 0 .5.5h1.024a.5.5 0 0 0 .5-.5V4.506h1.956a.5.5 0 0 0 .382-.823L12.382.177a.5.5 0 0 0-.764 0L8.65 3.683Z" opacity=".3"/></svg>
