<svg xmlns="http://www.w3.org/2000/svg" fill="none" viewBox="0 0 24 24"><path fill="currentColor" d="M7.143 11.665a.5.5 0 0 1-.85-.298l-.524-4.709a.501.501 0 0 1 .552-.552l4.71.523a.5.5 0 0 1 .298.85L9.943 8.866l1.501 1.502a.5.5 0 0 1 0 .707l-.707.707a.5.5 0 0 1-.707 0L8.53 10.28l-1.386 1.385Z" opacity=".3"/><path fill="currentColor" fill-rule="evenodd" d="m12.08 14.784 2.204-2.204a2 2 0 0 0 .375-2.309l-.125-.25a2 2 0 0 1 .374-2.308l2.733-2.733a.5.5 0 0 1 .8.13l1.105 2.208a4.387 4.387 0 0 1-.822 5.065l-5.999 5.998a5.427 5.427 0 0 1-5.553 1.311l-2.415-.804a.5.5 0 0 1-.195-.828l2.65-2.652a2 2 0 0 1 2.31-.374l.25.125a2 2 0 0 0 2.308-.375Z" clip-rule="evenodd"/></svg>
