<svg xmlns="http://www.w3.org/2000/svg" fill="none" viewBox="0 0 24 25"><path fill="currentColor" fill-rule="evenodd" d="M22 17.013v4a2 2 0 0 1-2 2H4a2 2 0 0 1-2-2v-4h4.28l.543 1.633a2 2 0 0 0 1.898 1.367h6.661a2 2 0 0 0 1.789-1.105l.947-1.895H22Z" clip-rule="evenodd"/><path fill="currentColor" fill-rule="evenodd" d="m2.563 15.013 3.364-5.98a2 2 0 0 1 1.743-1.02h8.66a2 2 0 0 1 1.744 1.02l3.363 5.98h-3.319a2 2 0 0 0-1.789 1.106l-.947 1.894H8.721l-.544-1.632a2 2 0 0 0-1.898-1.368H2.563Z" clip-rule="evenodd" opacity=".3"/><path fill="currentColor" d="M8.65 3.683a.5.5 0 0 0 .382.823h1.956v2.007a.5.5 0 0 0 .5.5h1.024a.5.5 0 0 0 .5-.5V4.506h1.956a.5.5 0 0 0 .382-.823L12.382.177a.5.5 0 0 0-.764 0L8.65 3.683Z"/></svg>
