<svg xmlns="http://www.w3.org/2000/svg" fill="none" viewBox="0 0 24 24"><path fill="currentColor" fill-rule="evenodd" d="m4 9.675 6.88 3.972a.886.886 0 0 0 .231.093v7.705l-6.62-3.919a1 1 0 0 1-.491-.86V9.675Zm16-.106v7.097a1 1 0 0 1-.49.86l-6.621 3.918v-7.771a.823.823 0 0 0 .048-.026L20 9.569Z" clip-rule="evenodd"/><path fill="currentColor" fill-rule="evenodd" d="M4.216 7.747a.999.999 0 0 1 .314-.262l7-3.728a1 1 0 0 1 .94 0l7 3.728a1 1 0 0 1 .253.191l-7.675 4.431a.89.89 0 0 0-.14.1.89.89 0 0 0-.139-.1l-7.553-4.36Z" clip-rule="evenodd" opacity=".3"/></svg>
