<svg xmlns="http://www.w3.org/2000/svg" fill="none" viewBox="0 0 24 24"><path fill="currentColor" fill-rule="evenodd" d="M7.825 10.225C7.2 9.475 6.85 8.4 6.85 7.375c0-2.825 2.3-5.325 5.5-5.325 2.92 0 5.175 2.13 5.49 4.863a.467.467 0 0 1-.478.512h-1.787c-.276 0-.496-.225-.538-.498C14.831 5.594 13.8 4.6 12.35 4.6c-1.6 0-2.75 1.175-2.75 2.775 0 .891.416 1.686 1.068 2.209.068.055.032 7.841.032 7.841h6.844a.5.5 0 0 1 .466.681l-.611 1.575a.5.5 0 0 1-.466.319H6.3a.5.5 0 0 1-.5-.5v-1.575a.5.5 0 0 1 .5-.5h1.625v-4.95l-.1-2.25Z" clip-rule="evenodd"/><path fill="currentColor" fill-rule="evenodd" d="M4.809 12a.5.5 0 0 1-.447-.724l.5-1A.5.5 0 0 1 5.309 10h9.882a.5.5 0 0 1 .447.724l-.5 1a.5.5 0 0 1-.447.276H4.809Z" clip-rule="evenodd" opacity=".3"/></svg>
