<svg xmlns="http://www.w3.org/2000/svg" fill="none" viewBox="0 0 24 24"><path fill="currentColor" d="M5.857 2h7.88a1.5 1.5 0 0 1 .968.355l4.764 4.029A1.5 1.5 0 0 1 20 7.529v12.554c0 1.79-.02 1.917-1.857 1.917H5.857C4.02 22 4 21.874 4 20.083V3.917C4 2.127 4.02 2 5.857 2Z" opacity=".3"/><path fill="currentColor" fill-rule="evenodd" d="M9.5 11.5a2.5 2.5 0 0 1 5 0v.5a1 1 0 0 1 1 1v3a1 1 0 0 1-1 1h-5a1 1 0 0 1-1-1v-3a1 1 0 0 1 1-1v-.5ZM12 10a1.5 1.5 0 0 0-1.5 1.5v.5h3v-.5A1.5 1.5 0 0 0 12 10Z" clip-rule="evenodd"/></svg>
