<svg xmlns="http://www.w3.org/2000/svg" fill="none" viewBox="0 0 24 24"><path fill="currentColor" d="M4.875 20.75a.946.946 0 0 1-.67-.288l-1.917-1.916a.926.926 0 0 1 0-1.342c.383-.383 1.006-.383 1.341 0l1.246 1.246 3.162-3.162a.926.926 0 0 1 1.342 0 .926.926 0 0 1 0 1.341l-3.833 3.833a.946.946 0 0 1-.671.288Z" opacity=".3"/><path fill="currentColor" fill-rule="evenodd" d="M4 7a2 2 0 0 1 2-2h14a2 2 0 0 1 2 2v9a2 2 0 0 1-2 2h-7.016A7.5 7.5 0 0 0 4 11.15V7Zm15.144-.16a.75.75 0 0 1 .712 1.32l-6.5 3.5a.75.75 0 0 1-.712 0l-6.5-3.5a.75.75 0 1 1 .712-1.32L13 10.148l6.144-3.308Z" clip-rule="evenodd"/></svg>
