<svg xmlns="http://www.w3.org/2000/svg" fill="none" viewBox="0 0 24 24"><path fill="currentColor" fill-rule="evenodd" d="M12.798 9.384A.5.5 0 0 1 12 8.983V8H8a4 4 0 0 0-4 4v1a3 3 0 0 0 3 3v2a5 5 0 0 1-5-5v-1a6 6 0 0 1 6-6h4V4.728a.5.5 0 0 1 .8-.4l2.856 2.133a.5.5 0 0 1-.001.802l-2.857 2.121Z" clip-rule="evenodd"/><path fill="currentColor" fill-rule="evenodd" d="M17 6v2a3 3 0 0 1 3 3v1a4 4 0 0 1-4 4h-3.942v-1.272a.5.5 0 0 0-.799-.4L8.402 16.46a.5.5 0 0 0 .001.803l2.857 2.12a.5.5 0 0 0 .798-.401V18H16a6 6 0 0 0 6-6v-1a5 5 0 0 0-5-5Z" clip-rule="evenodd" opacity=".3"/></svg>
