<svg xmlns="http://www.w3.org/2000/svg" fill="none" viewBox="0 0 24 24"><path fill="currentColor" fill-rule="evenodd" d="M21.997 12.193a6.5 6.5 0 0 1-2.346 1.443A4 4 0 0 1 16 16h-3.942v-1.272a.5.5 0 0 0-.799-.4L8.402 16.46a.5.5 0 0 0 .001.803l2.857 2.12a.5.5 0 0 0 .798-.401V18H16a6 6 0 0 0 5.997-5.807Z" clip-rule="evenodd" opacity=".3"/><path fill="currentColor" fill-rule="evenodd" d="M22 7a5 5 0 0 1-9.9 1H8a4 4 0 0 0-4 4v1a3 3 0 0 0 3 3v2a5 5 0 0 1-5-5v-1a6 6 0 0 1 6-6h4.1A5.002 5.002 0 0 1 22 7Zm-6.39-.412 1.12-.92V9.5h.96v-5h-.872L15.05 5.924l.56.664Z" clip-rule="evenodd"/></svg>
