<svg xmlns="http://www.w3.org/2000/svg" fill="none" viewBox="0 0 24 24"><path fill="currentColor" d="M9.55 4.693a.75.75 0 0 0-1.254-.555l-7.14 6.477a.75.75 0 0 0-.006 1.106l7.14 6.613a.75.75 0 0 0 1.26-.55V4.693Z" opacity=".3"/><path fill="currentColor" d="M23.295 17.791c0-.82.176-4.058-2.378-6.626C19.198 9.437 16.627 9.137 13.55 9V4.693a.75.75 0 0 0-1.254-.555l-7.14 6.477a.75.75 0 0 0-.006 1.106l7.14 6.613a.75.75 0 0 0 1.26-.55V13.5c1.953.054 3.344.178 4.608.58 2.444.777 3.893 4.11 4.284 5.125a.456.456 0 0 0 .422.295c.24 0 .436-.195.435-.436-.001-.443-.004-.952-.004-1.273Z"/></svg>
