<svg xmlns="http://www.w3.org/2000/svg" fill="none" viewBox="0 0 24 24"><path fill="currentColor" fill-rule="evenodd" d="M5.809 17a.5.5 0 0 1-.447-.724l.5-1A.5.5 0 0 1 6.309 15h9.882a.5.5 0 0 1 .447.724l-.5 1a.5.5 0 0 1-.447.276H5.809Z" clip-rule="evenodd" opacity=".3"/><path fill="currentColor" fill-rule="evenodd" d="M8 3.716h5.107c.935 0 1.779.084 2.53.253.751.169 1.395.445 1.932.828.537.383.95.874 1.242 1.472.291.598.437 1.319.437 2.162 0 .905-.169 1.664-.506 2.277a4.106 4.106 0 0 1-1.369 1.483c-.575.376-1.245.648-2.012.817-.767.169-1.58.253-2.438.253h-2.231V20H8V3.716Zm4.716 7.107c.475 0 .928-.034 1.357-.104.43-.069.813-.191 1.15-.367.337-.177.606-.418.805-.725.2-.307.299-.705.299-1.196 0-.475-.1-.862-.299-1.161a2.066 2.066 0 0 0-.793-.702 3.398 3.398 0 0 0-1.127-.333c-.422-.054-.855-.081-1.3-.081h-2.116v4.669h2.024Z" clip-rule="evenodd"/></svg>
