<svg xmlns="http://www.w3.org/2000/svg" fill="none" viewBox="0 0 24 24"><path fill="currentColor" fill-rule="evenodd" d="M6.5 16A1.5 1.5 0 0 0 5 17.5v2A1.5 1.5 0 0 0 6.5 21h1A1.5 1.5 0 0 0 9 19.5v-2A1.5 1.5 0 0 0 7.5 16h-1Zm10 0a1.5 1.5 0 0 0-1.5 1.5v2a1.5 1.5 0 0 0 1.5 1.5h1a1.5 1.5 0 0 0 1.5-1.5v-2a1.5 1.5 0 0 0-1.5-1.5h-1Z" clip-rule="evenodd" opacity=".3"/><path fill="currentColor" fill-rule="evenodd" d="M5 4a2 2 0 0 0-2 2v11a2 2 0 0 0 2 2h14a2 2 0 0 0 2-2V6a2 2 0 0 0-2-2H5Zm10.5 11a3.5 3.5 0 1 0 0-7 3.5 3.5 0 0 0 0 7Zm1.5-3.5a1.5 1.5 0 1 1-3 0 1.5 1.5 0 0 1 3 0ZM7 8a1 1 0 0 0-1 1v2a1 1 0 1 0 2 0V9a1 1 0 0 0-1-1Z" clip-rule="evenodd"/></svg>
