<svg xmlns="http://www.w3.org/2000/svg" fill="none" viewBox="0 0 24 24"><path fill="currentColor" fill-rule="evenodd" d="M3 16.5a2.5 2.5 0 0 1 5 0v.5a1 1 0 0 1 1 1v3a1 1 0 0 1-1 1H3a1 1 0 0 1-1-1v-3a1 1 0 0 1 1-1v-.5ZM5.5 15A1.5 1.5 0 0 0 4 16.5v.5h3v-.5A1.5 1.5 0 0 0 5.5 15Z" clip-rule="evenodd" opacity=".3"/><path fill="currentColor" fill-rule="evenodd" d="M5 3a3 3 0 0 0-3 3v5.865A7.5 7.5 0 0 1 12.984 18h5.04l2.294 2.293c.63.63 1.707.184 1.707-.707V15l-.025.01V6a3 3 0 0 0-3-3H5Zm1 4a1 1 0 0 0 0 2h9a1 1 0 1 0 0-2H6Z" clip-rule="evenodd"/></svg>
