<svg xmlns="http://www.w3.org/2000/svg" fill="none" viewBox="0 0 24 24"><path fill="currentColor" fill-rule="evenodd" d="m12 20.022-3.527 1.707-1.604-3.575-3.799-.959 1.069-3.77-2.293-3.176 3.241-2.2.285-3.908 3.898.398L12 1.729l2.73 2.81 3.898-.398.285 3.907 3.241 2.201-2.293 3.177 1.069 3.769-3.8.96-1.603 3.574L12 20.022Z" clip-rule="evenodd" opacity=".3"/><path fill="currentColor" fill-rule="evenodd" d="M14.09 8.603 8.36 14.7 9.71 16.05l5.728-6.099-1.348-1.347Z" clip-rule="evenodd"/><path fill="currentColor" fill-rule="evenodd" d="M10.854 9.175a1.718 1.718 0 1 1-3.435.002 1.718 1.718 0 0 1 3.435-.002ZM14.864 16.622a1.719 1.719 0 1 1 0-3.437 1.719 1.719 0 0 1 0 3.437Z" clip-rule="evenodd" opacity=".3"/></svg>
