<svg xmlns="http://www.w3.org/2000/svg" fill="none" viewBox="0 0 24 24"><path fill="currentColor" fill-rule="evenodd" d="M4.857 1h6.88a1.5 1.5 0 0 1 .968.355l4.764 4.029A1.5 1.5 0 0 1 18 6.529v12.554c0 1.79-.02 1.917-1.857 1.917H4.857C3.02 21 3 20.874 3 19.083V2.917C3 1.127 3.02 1 4.857 1ZM7 13a1 1 0 0 1 1-1h7a1 1 0 1 1 0 2H8a1 1 0 0 1-1-1Zm1 3a1 1 0 1 0 0 2h3a1 1 0 1 0 0-2H8Z" clip-rule="evenodd" opacity=".3"/><path fill="currentColor" fill-rule="evenodd" d="M6.857 3h7.88a1.5 1.5 0 0 1 .968.355l4.764 4.029A1.5 1.5 0 0 1 21 8.529v12.554c0 1.79-.02 1.917-1.857 1.917H6.857C5.02 23 5 22.874 5 21.083V4.917C5 3.127 5.02 3 6.857 3ZM7 13a1 1 0 0 1 1-1h7a1 1 0 1 1 0 2H8a1 1 0 0 1-1-1Zm1 3a1 1 0 1 0 0 2h3a1 1 0 1 0 0-2H8Z" clip-rule="evenodd"/></svg>
