<svg xmlns="http://www.w3.org/2000/svg" fill="none" viewBox="0 0 24 24"><path fill="currentColor" fill-rule="evenodd" d="M8 5.772a.5.5 0 0 1 .705-.456l13.84 6.228a.5.5 0 0 1 0 .912l-13.84 6.228A.5.5 0 0 1 8 18.228v-5.061L20.447 12 8 10.833V5.772Z" clip-rule="evenodd"/><path fill="currentColor" fill-rule="evenodd" d="M4 6a1 1 0 0 0 0 2h1a1 1 0 0 0 0-2H4Zm-4 6a1 1 0 0 1 1-1h4a1 1 0 1 1 0 2H1a1 1 0 0 1-1-1Zm3 5a1 1 0 0 1 1-1h1a1 1 0 1 1 0 2H4a1 1 0 0 1-1-1Z" clip-rule="evenodd" opacity=".3"/></svg>
