<svg xmlns="http://www.w3.org/2000/svg" fill="none" viewBox="0 0 24 24"><path fill="currentColor" fill-rule="evenodd" d="M3 6a1 1 0 0 0 0 2h2a1 1 0 0 0 0-2H3Zm-3 6a1 1 0 0 1 1-1h4a1 1 0 1 1 0 2H1a1 1 0 0 1-1-1Zm3 5a1 1 0 0 1 1-1h1a1 1 0 1 1 0 2H4a1 1 0 0 1-1-1Z" clip-rule="evenodd" opacity=".3"/><path fill="currentColor" fill-rule="evenodd" d="M10 6a2 2 0 0 0-2 2v8a2 2 0 0 0 2 2h12a2 2 0 0 0 2-2V8a2 2 0 0 0-2-2H10Zm11.926 2.316a.632.632 0 0 0-.841-.244L16 10.719l-5.085-2.647a.632.632 0 0 0-.84.244.59.59 0 0 0 .252.812l5.379 2.8a.64.64 0 0 0 .588 0l5.38-2.8a.59.59 0 0 0 .252-.812Z" clip-rule="evenodd"/></svg>
