<svg xmlns="http://www.w3.org/2000/svg" fill="none" viewBox="0 0 25 24"><path fill="currentColor" d="M10.9 2a1 1 0 1 1 0 2H6a2 2 0 0 0-2 2v12a2 2 0 0 0 2 2h12a2 2 0 0 0 2-2v-2a1 1 0 1 1 2 0v2a4 4 0 0 1-4 4H6a4 4 0 0 1-4-4V6a4 4 0 0 1 4-4h4.9Z" opacity=".3"/><path fill="currentColor" d="M7.005 13.897c0-.762-.164-3.772 2.21-6.16 1.599-1.608 3.99-1.886 6.85-2.013V1.838a.75.75 0 0 1 1.254-.556l6.509 5.905a.75.75 0 0 1 .005 1.106l-6.508 6.027a.75.75 0 0 1-1.26-.55V9.908c-1.816.05-3.11.165-4.284.539-2.272.723-3.62 3.822-3.983 4.765a.424.424 0 0 1-.393.274.404.404 0 0 1-.404-.405c.001-.412.004-.886.004-1.184Z"/></svg>
