<svg xmlns="http://www.w3.org/2000/svg" fill="none" viewBox="0 0 24 24"><path fill="currentColor" fill-rule="evenodd" d="m4 4 7.631-1.43a2 2 0 0 1 .738 0L20 4v7.903a11 11 0 0 1-5.17 9.328l-2.3 1.438a1 1 0 0 1-1.06 0l-2.3-1.438A11 11 0 0 1 4 11.903V4Z" clip-rule="evenodd" opacity=".3"/><path fill="currentColor" fill-rule="evenodd" d="M12 11a2 2 0 1 1 0-4 2 2 0 0 1 0 4ZM7 16.5c.216-2.983 2.368-4.5 4.99-4.5 2.66 0 4.846 1.433 5.009 4.5.006.122 0 .5-.418.5H7.404c-.14 0-.415-.338-.404-.5Z" clip-rule="evenodd" opacity=".3"/></svg>
