<svg xmlns="http://www.w3.org/2000/svg" fill="none" viewBox="0 0 24 24"><path fill="currentColor" d="M12 4.562 7.768 9.64a1 1 0 1 1-1.536-1.28l5-6a1 1 0 0 1 1.536 0l5 6a1 1 0 1 1-1.536 1.28L12 4.562Z" opacity=".3"/><path fill="currentColor" fill-rule="evenodd" d="M3.28 9a1 1 0 0 0-.97 1.242l2.122 8.486A3 3 0 0 0 7.342 21h9.316a3 3 0 0 0 2.91-2.272l2.121-8.486A1 1 0 0 0 20.72 9H3.281ZM12 12a1 1 0 0 0-1 1v4a1 1 0 1 0 2 0v-4a1 1 0 0 0-1-1Zm-5.742 1.361a1 1 0 1 1 1.931-.518l1.036 3.864a1 1 0 1 1-1.932.518L6.258 13.36Zm10.777-1.225a1 1 0 0 0-1.225.707l-1.035 3.864a1 1 0 1 0 1.932.518l1.035-3.864a1 1 0 0 0-.707-1.225Z" clip-rule="evenodd"/></svg>
