<svg xmlns="http://www.w3.org/2000/svg" fill="none" viewBox="0 0 24 24"><path fill="currentColor" fill-rule="evenodd" d="M2 6v2h2.555a4 4 0 0 1 3.157 1.544l3.997 5.14A6 6 0 0 0 16.445 17H18v1.614a.5.5 0 0 0 .829.376l2.935-2.56a.5.5 0 0 0 0-.752l-2.934-2.576a.5.5 0 0 0-.83.375V15h-1.555a4 4 0 0 1-3.157-1.544l-3.997-5.14A6 6 0 0 0 4.555 6H2Z" clip-rule="evenodd" opacity=".3"/><path fill="currentColor" fill-rule="evenodd" d="M18.829 9.99A.5.5 0 0 1 18 9.614V8h-1.555a4 4 0 0 0-3.157 1.544l-3.997 5.14A6 6 0 0 1 4.555 17H2v-2h2.555a4 4 0 0 0 3.157-1.544l3.997-5.14A6 6 0 0 1 16.445 6H18V4.477a.5.5 0 0 1 .83-.375l2.935 2.576a.5.5 0 0 1-.001.752l-2.935 2.56Z" clip-rule="evenodd"/></svg>
