<svg xmlns="http://www.w3.org/2000/svg" fill="none" viewBox="0 0 24 24"><rect width="2" height="12" x="15" y="11" fill="currentColor" opacity=".3" rx="1" transform="rotate(90 15 11)"/><path fill="currentColor" d="M10.006 7a1 1 0 1 1-2 0V6a4 4 0 0 1 4-4h5.996A4 4 0 0 1 22 6v12a4 4 0 0 1-3.998 4h-6.004A4 4 0 0 1 8 18v-1a1 1 0 1 1 2 0v1a2 2 0 0 0 1.998 2h6.004A2 2 0 0 0 20 18V6a2 2 0 0 0-2-2h-5.996a2 2 0 0 0-1.999 2v1Z" opacity=".3"/><path fill="currentColor" d="M12.293 9.707a1 1 0 0 1 1.414-1.414l3 3a1 1 0 0 1 0 1.414l-3 3a1 1 0 0 1-1.414-1.414L14.586 12l-2.293-2.293Z"/></svg>
