<svg xmlns="http://www.w3.org/2000/svg" fill="none" viewBox="0 0 24 24"><path fill="currentColor" d="M14 7a1 1 0 1 0 2 0V6a4 4 0 0 0-3.998-4H6.005a4 4 0 0 0-3.998 4v12a4 4 0 0 0 3.998 4h6.004a4 4 0 0 0 3.998-4v-1a1 1 0 1 0-2 0v1a2 2 0 0 1-1.998 2H6.005a2 2 0 0 1-1.999-2V6a2 2 0 0 1 2-2h5.996A2 2 0 0 1 14 6v1Z" opacity=".3"/><rect width="2" height="12" x="20" y="11" fill="currentColor" opacity=".3" rx="1" transform="rotate(90 20 11)"/><path fill="currentColor" d="M17.293 9.707a1 1 0 0 1 1.414-1.414l3 3a1 1 0 0 1 0 1.414l-3 3a1 1 0 0 1-1.414-1.414L19.586 12l-2.293-2.293Z"/></svg>
