<svg xmlns="http://www.w3.org/2000/svg" fill="none" viewBox="0 0 24 24"><path fill="currentColor" fill-rule="evenodd" d="M4.929 19.07A9.969 9.969 0 0 1 2 12C2 6.477 6.477 2 12 2s10 4.477 10 10-4.477 10-10 10a9.969 9.969 0 0 1-7.069-2.927 1 1 0 0 0 1.412-.002l.751-.751A8 8 0 0 0 18.32 7.094l.751-.75a1 1 0 0 0-1.414-1.415l-.751.751A8 8 0 0 0 5.68 16.905l-.752.752a1 1 0 0 0 0 1.414Zm.751-2.164c.41.528.886 1.003 1.414 1.414L18.32 7.094a8.048 8.048 0 0 0-1.414-1.414L5.68 16.906ZM4.93 19.07l.002.002" clip-rule="evenodd" opacity=".3"/></svg>
