<svg xmlns="http://www.w3.org/2000/svg" fill="none" viewBox="0 0 24 24"><path fill="currentColor" fill-rule="evenodd" d="M13.5 4v10a1 1 0 0 1-1 1h-1a1 1 0 0 1-1-1V4H7a1 1 0 0 1-1-1V2a1 1 0 0 1 1-1h10a1 1 0 0 1 1 1v1a1 1 0 0 1-1 1h-3.5Z" clip-rule="evenodd" opacity=".3"/><path fill="currentColor" fill-rule="evenodd" d="M7.707 22.707a1 1 0 0 0 0-1.414L6.414 20h11.172l-1.293 1.293a1 1 0 0 0 1.414 1.414l3-3a1 1 0 0 0 0-1.414l-3-3a1 1 0 0 0-1.414 1.414L17.586 18H6.414l1.293-1.293a1 1 0 1 0-1.414-1.414l-3 3a1 1 0 0 0 0 1.414l3 3a1 1 0 0 0 1.414 0Z" clip-rule="evenodd"/></svg>
