<svg xmlns="http://www.w3.org/2000/svg" fill="none" viewBox="0 0 24 24"><path fill="currentColor" fill-rule="evenodd" d="m11.674 8.33 3.325-2.23-.878-.878a1 1 0 0 1 0-1.414l1.415-1.415a1 1 0 0 1 1.414 0l5.657 5.657a1 1 0 0 1 0 1.414l-1.415 1.415a1 1 0 0 1-1.414 0L18.9 10l-2.23 3.326c.256.925.328 1.905.196 2.882l-.431 3.197a1 1 0 0 1-1.699.573l-9.715-9.715a1 1 0 0 1 .573-1.698l3.197-.432a7.175 7.175 0 0 1 2.883.197Z" clip-rule="evenodd"/><path fill="currentColor" fill-rule="evenodd" d="m8.818 14.06-4.04 4.041-.556 2.677 2.677-.555 4.04-4.041-2.121-2.121Z" clip-rule="evenodd" opacity=".3"/></svg>
