<svg xmlns="http://www.w3.org/2000/svg" fill="none" viewBox="0 0 24 24"><path fill="currentColor" fill-rule="evenodd" d="M6.136 11.086 2.601 14.62a1 1 0 0 0 0 1.414l1.45 1.45a2.5 2.5 0 0 1 3.464 3.465l1.45 1.45a1 1 0 0 0 1.414 0l3.535-3.536L12.5 17.45a1 1 0 0 1 1.414-1.415l1.414 1.415 7.072-7.071a1 1 0 0 0 0-1.415l-1.45-1.45a2.5 2.5 0 0 1-3.465-3.464l-1.45-1.45a1 1 0 0 0-1.414 0l-7.07 7.072 1.413 1.414A1 1 0 1 1 7.55 12.5l-1.414-1.414Zm3.536 3.535a1 1 0 1 1 1.414-1.414l.707.707a1 1 0 0 1-1.414 1.414l-.707-.707Z" clip-rule="evenodd" opacity=".3"/></svg>
