<svg xmlns="http://www.w3.org/2000/svg" fill="none" viewBox="0 0 24 24"><path fill="currentColor" fill-rule="evenodd" d="M12 21a8 8 0 1 1 0-16 8 8 0 0 1 0 16Z" clip-rule="evenodd" opacity=".3"/><path fill="currentColor" fill-rule="evenodd" d="M13 5.062V4h1a1 1 0 1 0 0-2h-4a1 1 0 0 0 0 2h1v1.062a8.079 8.079 0 0 1 2 0ZM18.167 7.904l.783-.783a1 1 0 1 0-1.415-1.414l-.825.826c.541.394 1.03.856 1.457 1.37ZM11.464 7.962a.5.5 0 0 1 .499-.462h.074a.5.5 0 0 1 .498.462l.424 5.5a.5.5 0 0 1-.499.538h-.92a.5.5 0 0 1-.499-.538l.423-5.5Z" clip-rule="evenodd"/></svg>
