<svg xmlns="http://www.w3.org/2000/svg" fill="none" viewBox="0 0 24 24"><path fill="currentColor" fill-rule="evenodd" d="M10.464 7.962a.5.5 0 0 1 .499-.462h.085a.5.5 0 0 1 .497.45L12 12.5l3.248 1.856a.5.5 0 0 1 .252.434v.055a.5.5 0 0 1-.632.483l-4.47-1.22a.5.5 0 0 1-.366-.52l.432-5.626Z" clip-rule="evenodd"/><path fill="currentColor" fill-rule="evenodd" d="M6.201 1.418a.5.5 0 0 0-.87.206l-1.128 4.73a.5.5 0 0 0 .515.616l4.867-.276a.5.5 0 0 0 .354-.82l-1.19-1.42A8.495 8.495 0 0 1 11.5 4 8.5 8.5 0 1 1 3 12.5c0-.788.107-1.56.315-2.302l-1.926-.54C1.136 10.562 1 11.515 1 12.5 1 18.299 5.701 23 11.5 23S22 18.299 22 12.5 17.299 2 11.5 2c-1.459 0-2.848.297-4.11.835L6.2 1.418Z" clip-rule="evenodd" opacity=".3"/></svg>
