<svg xmlns="http://www.w3.org/2000/svg" fill="none" viewBox="0 0 24 24"><rect width="12" height="4" x="6" y="1" fill="currentColor" opacity=".3" rx="1"/><path fill="currentColor" fill-rule="evenodd" d="M15.234 6a2 2 0 0 1 1.985 1.752l.642 5.135c.091.52.139 1.06.139 1.613 0 4.142-2.686 7.5-6 7.5s-6-3.358-6-7.5c0-.554.048-1.094.14-1.614l.641-5.134A2 2 0 0 1 8.766 6h6.468ZM12 20c2.21 0 4-2.239 4-5s-1.79-5-4-5-4 2.239-4 5 1.79 5 4 5Z" clip-rule="evenodd"/><path fill="currentColor" d="M10.5 14.5a.5.5 0 0 1 .5-.5h2a.5.5 0 0 1 .5.5v1a1.5 1.5 0 0 1-3 0v-1Z" opacity=".3"/></svg>
