<svg xmlns="http://www.w3.org/2000/svg" fill="none" viewBox="0 0 24 24"><rect width="2" height="12" x="7" y="17" fill="currentColor" opacity=".3" rx="1" transform="rotate(-180 7 17)"/><path fill="currentColor" d="M8.293 14.293a1 1 0 0 1 1.414 1.414l-3 3a1 1 0 0 1-1.414 0l-3-3a1 1 0 1 1 1.414-1.414L6 16.586l2.293-2.293Z"/><rect width="2" height="12" fill="currentColor" opacity=".3" rx="1" transform="matrix(-1 0 0 1 19 7)"/><path fill="currentColor" d="M20.293 9.707a1 1 0 0 0 1.414-1.414l-3-3a1 1 0 0 0-1.414 0l-3 3a1 1 0 0 0 1.414 1.414L18 7.414l2.293 2.293Z"/></svg>
