<svg xmlns="http://www.w3.org/2000/svg" fill="none" viewBox="0 0 24 24"><path fill="currentColor" d="M5.857 2h7.88a1.5 1.5 0 0 1 .968.355l4.764 4.029A1.5 1.5 0 0 1 20 7.529v12.554c0 1.79-.02 1.917-1.857 1.917H5.857C4.02 22 4 21.874 4 20.083V3.917C4 2.127 4.02 2 5.857 2Z" opacity=".3"/><path fill="currentColor" fill-rule="evenodd" d="M8.57 12.992a.5.5 0 0 0 .381.823h1.957v2.008a.5.5 0 0 0 .5.5h1.023a.5.5 0 0 0 .5-.5v-2.008h1.957a.5.5 0 0 0 .381-.823l-2.968-3.505a.5.5 0 0 0-.763 0L8.57 12.992Z" clip-rule="evenodd"/></svg>
