<svg xmlns="http://www.w3.org/2000/svg" fill="none" viewBox="0 0 24 24"><path fill="currentColor" fill-rule="evenodd" d="M2 19.5A1.5 1.5 0 0 0 3.5 21h17a1.5 1.5 0 0 0 1.5-1.5v-11A1.5 1.5 0 0 0 20.5 7H10L7.44 4.44A1.5 1.5 0 0 0 6.378 4H3.5A1.5 1.5 0 0 0 2 5.5v14Z" clip-rule="evenodd" opacity=".3"/><path fill="currentColor" fill-rule="evenodd" d="M12 13a2 2 0 1 1 0-4 2 2 0 0 1 0 4ZM7 18.5c.216-2.983 2.368-4.5 4.99-4.5 2.66 0 4.846 1.433 5.009 4.5.006.122 0 .5-.418.5H7.404c-.14 0-.415-.338-.404-.5Z" clip-rule="evenodd" opacity=".3"/></svg>
