<svg xmlns="http://www.w3.org/2000/svg" fill="none" viewBox="0 0 24 24"><path fill="currentColor" fill-rule="evenodd" d="M10 6.5A1.5 1.5 0 0 1 11.5 5h7a1.5 1.5 0 0 1 0 3h-7A1.5 1.5 0 0 1 10 6.5Zm-6 12A1.5 1.5 0 0 1 5.5 17h13a1.5 1.5 0 0 1 0 3h-13A1.5 1.5 0 0 1 4 18.5ZM5.5 11a1.5 1.5 0 0 0 0 3h13a1.5 1.5 0 0 0 0-3h-13Z" clip-rule="evenodd" opacity=".3"/><path fill="currentColor" fill-rule="evenodd" d="M4 9.03a.5.5 0 0 0 .829.378L7.703 6.9a.5.5 0 0 0 .002-.753L4.83 3.624A.5.5 0 0 0 4 4v5.03Z" clip-rule="evenodd"/></svg>
