<svg xmlns="http://www.w3.org/2000/svg" fill="none" viewBox="0 0 24 24"><path fill="currentColor" d="M16.316 16.148a.75.75 0 1 1-.733-1.309A3.248 3.248 0 0 0 17.25 12a3.248 3.248 0 0 0-1.645-2.827.75.75 0 1 1 .742-1.304A4.748 4.748 0 0 1 18.75 12c0 1.74-.944 3.315-2.434 4.148Z" opacity=".3"/><path fill="currentColor" fill-rule="evenodd" d="M12 5.414c0-.89-1.077-1.337-1.707-.707L7 8l-3.392.678A2 2 0 0 0 2 10.64v2.72a2 2 0 0 0 1.608 1.962L7 16l3.293 3.293c.63.63 1.707.184 1.707-.707V5.414Z" clip-rule="evenodd"/></svg>
