<svg xmlns="http://www.w3.org/2000/svg" fill="none" viewBox="0 0 24 24"><path fill="currentColor" fill-rule="evenodd" d="M15.788 19.538a.75.75 0 0 0 1 .351A8.75 8.75 0 0 0 21.75 12a8.75 8.75 0 0 0-4.88-7.85.75.75 0 1 0-.664 1.345A7.25 7.25 0 0 1 20.25 12a7.25 7.25 0 0 1-4.111 6.538.75.75 0 0 0-.351 1Zm-.493-3.678a.75.75 0 0 0 1.02.288A4.748 4.748 0 0 0 18.75 12c0-1.727-.93-3.292-2.403-4.13a.75.75 0 1 0-.742 1.303A3.248 3.248 0 0 1 17.25 12c0 1.19-.645 2.268-1.667 2.839a.75.75 0 0 0-.288 1.02Z" clip-rule="evenodd" opacity=".3"/><path fill="currentColor" fill-rule="evenodd" d="M12 5.414c0-.89-1.077-1.337-1.707-.707L7 8l-3.392.678A2 2 0 0 0 2 10.64v2.72a2 2 0 0 0 1.608 1.962L7 16l3.293 3.293c.63.63 1.707.184 1.707-.707V5.414Z" clip-rule="evenodd"/></svg>
