<svg xmlns="http://www.w3.org/2000/svg" fill="none" viewBox="0 0 24 24"><path fill="currentColor" fill-rule="evenodd" d="M10.5 3a1.5 1.5 0 0 1 3 0v1.5a1.5 1.5 0 0 1-3 0V3Zm5.56 2.871a1.5 1.5 0 1 0 2.122 2.122l1.06-1.061a1.5 1.5 0 1 0-2.12-2.121L16.06 5.87ZM19.5 10.5a1.5 1.5 0 0 0 0 3H21a1.5 1.5 0 0 0 0-3h-1.5Zm-3.44 5.56a1.5 1.5 0 0 0 0 2.122l1.061 1.06a1.5 1.5 0 1 0 2.122-2.12l-1.061-1.061a1.5 1.5 0 0 0-2.121 0ZM3 10.5a1.5 1.5 0 0 0 0 3h1.5a1.5 1.5 0 0 0 0-3H3Zm9 7.5a1.5 1.5 0 0 0-1.5 1.5V21a1.5 1.5 0 0 0 3 0v-1.5A1.5 1.5 0 0 0 12 18ZM4.81 6.932a1.5 1.5 0 1 1 2.122-2.121l1.06 1.06a1.5 1.5 0 1 1-2.12 2.122L4.81 6.932Zm0 12.31a1.5 1.5 0 0 1 0-2.12l1.061-1.061a1.5 1.5 0 1 1 2.122 2.121l-1.061 1.06a1.5 1.5 0 0 1-2.121 0Z" clip-rule="evenodd" opacity=".3"/></svg>
