<svg xmlns="http://www.w3.org/2000/svg" fill="none" viewBox="0 0 24 24"><path fill="currentColor" fill-rule="evenodd" d="M1.26 6.602C1.4 5.108 2.67 4 4.17 4h15.798c1.44 0 2.668 1.026 2.811 2.46.117 1.176.221 2.71.221 4.463 0 1.984-.133 3.969-.268 5.474-.134 1.495-1.4 2.603-2.901 2.603H4.169c-1.5 0-2.769-1.108-2.908-2.602C1.128 14.978 1 13.171 1 11.5c0-1.671.128-3.477.26-4.898Z" clip-rule="evenodd" opacity=".3"/><path fill="currentColor" fill-rule="evenodd" d="M10.4 14.393a.5.5 0 0 0 .782.412l4.404-3.01a.5.5 0 0 0 0-.824l-4.403-3.03a.5.5 0 0 0-.783.413v6.039Z" clip-rule="evenodd"/></svg>
